<svg xmlns="http://www.w3.org/2000/svg" xmlns:xlink="http://www.w3.org/1999/xlink" width="1133" zoomAndPan="magnify" viewBox="0 0 850.5 283.499996" height="377" preserveAspectRatio="xMidYMid meet" version="1.0"><defs><g/></defs><g fill="#0292b7" fill-opacity="1"><g transform="translate(104.028862, 204.841416)"><g><path d="M 14.765625 -124.484375 L 43.578125 -124.484375 L 43.578125 0 L 14.765625 0 Z M 14.765625 -124.484375 "/></g></g></g><g fill="#0292b7" fill-opacity="1"><g transform="translate(162.360042, 204.841416)"><g><path d="M 70.953125 -97.109375 C 82.816406 -97.109375 92.394531 -93.550781 99.6875 -86.4375 C 106.976562 -79.320312 110.625 -68.769531 110.625 -54.78125 L 110.625 0 L 82.875 0 L 82.875 -50.5 C 82.875 -58.09375 81.210938 -63.753906 77.890625 -67.484375 C 74.578125 -71.222656 69.773438 -73.09375 63.484375 -73.09375 C 56.492188 -73.09375 50.921875 -70.925781 46.765625 -66.59375 C 42.617188 -62.269531 40.546875 -55.84375 40.546875 -47.3125 L 40.546875 0 L 12.8125 0 L 12.8125 -95.6875 L 39.296875 -95.6875 L 39.296875 -84.46875 C 42.972656 -88.5 47.535156 -91.613281 52.984375 -93.8125 C 58.441406 -96.007812 64.429688 -97.109375 70.953125 -97.109375 Z M 70.953125 -97.109375 "/></g></g></g><g fill="#0292b7" fill-opacity="1"><g transform="translate(285.246758, 204.841416)"><g><path d="M 110.265625 -131.953125 L 110.265625 0 L 83.765625 0 L 83.765625 -11.03125 C 76.890625 -2.726562 66.929688 1.421875 53.890625 1.421875 C 44.878906 1.421875 36.726562 -0.59375 29.4375 -4.625 C 22.144531 -8.65625 16.421875 -14.40625 12.265625 -21.875 C 8.117188 -29.34375 6.046875 -38 6.046875 -47.84375 C 6.046875 -57.675781 8.117188 -66.328125 12.265625 -73.796875 C 16.421875 -81.273438 22.144531 -87.03125 29.4375 -91.0625 C 36.726562 -95.09375 44.878906 -97.109375 53.890625 -97.109375 C 66.097656 -97.109375 75.640625 -93.253906 82.515625 -85.546875 L 82.515625 -131.953125 Z M 58.6875 -21.34375 C 65.6875 -21.34375 71.492188 -23.742188 76.109375 -28.546875 C 80.734375 -33.347656 83.046875 -39.78125 83.046875 -47.84375 C 83.046875 -55.90625 80.734375 -62.335938 76.109375 -67.140625 C 71.492188 -71.941406 65.6875 -74.34375 58.6875 -74.34375 C 51.570312 -74.34375 45.703125 -71.941406 41.078125 -67.140625 C 36.453125 -62.335938 34.140625 -55.90625 34.140625 -47.84375 C 34.140625 -39.78125 36.453125 -33.347656 41.078125 -28.546875 C 45.703125 -23.742188 51.570312 -21.34375 58.6875 -21.34375 Z M 58.6875 -21.34375 "/></g></g></g><g fill="#0292b7" fill-opacity="1"><g transform="translate(408.311316, 204.841416)"><g><path d="M 106.53125 -47.484375 C 106.53125 -47.128906 106.351562 -44.640625 106 -40.015625 L 33.609375 -40.015625 C 34.910156 -34.085938 37.992188 -29.40625 42.859375 -25.96875 C 47.722656 -22.53125 53.769531 -20.8125 61 -20.8125 C 65.976562 -20.8125 70.394531 -21.550781 74.25 -23.03125 C 78.101562 -24.507812 81.691406 -26.851562 85.015625 -30.0625 L 99.765625 -14.046875 C 90.753906 -3.734375 77.59375 1.421875 60.28125 1.421875 C 49.5 1.421875 39.957031 -0.679688 31.65625 -4.890625 C 23.351562 -9.097656 16.945312 -14.9375 12.4375 -22.40625 C 7.9375 -29.875 5.6875 -38.351562 5.6875 -47.84375 C 5.6875 -57.207031 7.910156 -65.648438 12.359375 -73.171875 C 16.804688 -80.703125 22.910156 -86.570312 30.671875 -90.78125 C 38.441406 -95 47.128906 -97.109375 56.734375 -97.109375 C 66.097656 -97.109375 74.570312 -95.09375 82.15625 -91.0625 C 89.75 -87.03125 95.707031 -81.25 100.03125 -73.71875 C 104.363281 -66.1875 106.53125 -57.441406 106.53125 -47.484375 Z M 56.90625 -76.109375 C 50.625 -76.109375 45.347656 -74.332031 41.078125 -70.78125 C 36.804688 -67.226562 34.195312 -62.367188 33.25 -56.203125 L 80.390625 -56.203125 C 79.441406 -62.242188 76.832031 -67.070312 72.5625 -70.6875 C 68.289062 -74.300781 63.070312 -76.109375 56.90625 -76.109375 Z M 56.90625 -76.109375 "/></g></g></g><g fill="#0292b7" fill-opacity="1"><g transform="translate(520.527697, 204.841416)"><g><path d="M 45 1.421875 C 37.050781 1.421875 29.28125 0.441406 21.6875 -1.515625 C 14.101562 -3.472656 8.0625 -5.929688 3.5625 -8.890625 L 12.8125 -28.8125 C 17.070312 -26.082031 22.222656 -23.859375 28.265625 -22.140625 C 34.316406 -20.421875 40.25 -19.5625 46.0625 -19.5625 C 57.800781 -19.5625 63.671875 -22.46875 63.671875 -28.28125 C 63.671875 -31.007812 62.066406 -32.960938 58.859375 -34.140625 C 55.660156 -35.328125 50.742188 -36.335938 44.109375 -37.171875 C 36.285156 -38.359375 29.820312 -39.722656 24.71875 -41.265625 C 19.625 -42.804688 15.207031 -45.53125 11.46875 -49.4375 C 7.738281 -53.351562 5.875 -58.925781 5.875 -66.15625 C 5.875 -72.207031 7.617188 -77.570312 11.109375 -82.25 C 14.609375 -86.9375 19.707031 -90.582031 26.40625 -93.1875 C 33.101562 -95.800781 41.019531 -97.109375 50.15625 -97.109375 C 56.90625 -97.109375 63.628906 -96.363281 70.328125 -94.875 C 77.035156 -93.394531 82.582031 -91.351562 86.96875 -88.75 L 77.71875 -69 C 69.300781 -73.738281 60.113281 -76.109375 50.15625 -76.109375 C 44.226562 -76.109375 39.78125 -75.28125 36.8125 -73.625 C 33.851562 -71.96875 32.375 -69.832031 32.375 -67.21875 C 32.375 -64.257812 33.972656 -62.1875 37.171875 -61 C 40.367188 -59.8125 45.46875 -58.6875 52.46875 -57.625 C 60.289062 -56.320312 66.691406 -54.925781 71.671875 -53.4375 C 76.648438 -51.957031 80.976562 -49.257812 84.65625 -45.34375 C 88.332031 -41.4375 90.171875 -35.984375 90.171875 -28.984375 C 90.171875 -23.054688 88.390625 -17.78125 84.828125 -13.15625 C 81.273438 -8.53125 76.085938 -4.941406 69.265625 -2.390625 C 62.453125 0.148438 54.363281 1.421875 45 1.421875 Z M 45 1.421875 "/></g></g></g><g fill="#0292b7" fill-opacity="1"><g transform="translate(614.960159, 204.841416)"><g><path d="M 12.8125 -95.6875 L 40.546875 -95.6875 L 40.546875 0 L 12.8125 0 Z M 26.671875 -109.015625 C 21.578125 -109.015625 17.425781 -110.492188 14.21875 -113.453125 C 11.019531 -116.421875 9.421875 -120.097656 9.421875 -124.484375 C 9.421875 -128.878906 11.019531 -132.554688 14.21875 -135.515625 C 17.425781 -138.484375 21.578125 -139.96875 26.671875 -139.96875 C 31.773438 -139.96875 35.925781 -138.539062 39.125 -135.6875 C 42.320312 -132.84375 43.921875 -129.289062 43.921875 -125.03125 C 43.921875 -120.40625 42.320312 -116.578125 39.125 -113.546875 C 35.925781 -110.523438 31.773438 -109.015625 26.671875 -109.015625 Z M 26.671875 -109.015625 "/></g></g></g><g fill="#0292b7" fill-opacity="1"><g transform="translate(668.489688, 204.841416)"><g><path d="M 74.515625 -4.625 C 71.785156 -2.601562 68.4375 -1.085938 64.46875 -0.078125 C 60.5 0.921875 56.320312 1.421875 51.9375 1.421875 C 40.550781 1.421875 31.742188 -1.476562 25.515625 -7.28125 C 19.296875 -13.09375 16.1875 -21.632812 16.1875 -32.90625 L 16.1875 -72.203125 L 1.421875 -72.203125 L 1.421875 -93.546875 L 16.1875 -93.546875 L 16.1875 -116.84375 L 43.921875 -116.84375 L 43.921875 -93.546875 L 67.765625 -93.546875 L 67.765625 -72.203125 L 43.921875 -72.203125 L 43.921875 -33.25 C 43.921875 -29.21875 44.957031 -26.101562 47.03125 -23.90625 C 49.113281 -21.71875 52.050781 -20.625 55.84375 -20.625 C 60.226562 -20.625 63.960938 -21.8125 67.046875 -24.1875 Z M 74.515625 -4.625 "/></g></g></g></svg>