<svg xmlns="http://www.w3.org/2000/svg" xmlns:xlink="http://www.w3.org/1999/xlink" width="1133" zoomAndPan="magnify" viewBox="0 0 850.5 283.499996" height="377" preserveAspectRatio="xMidYMid meet" version="1.0"><defs><g/></defs><g fill="#a83b3b" fill-opacity="1"><g transform="translate(117.678816, 214.425378)"><g><path d="M 51.90625 1.640625 C 42.75 1.640625 33.789062 0.515625 25.03125 -1.734375 C 16.28125 -3.992188 9.304688 -6.835938 4.109375 -10.265625 L 14.78125 -33.234375 C 19.695312 -30.085938 25.644531 -27.523438 32.625 -25.546875 C 39.601562 -23.566406 46.441406 -22.578125 53.140625 -22.578125 C 66.679688 -22.578125 73.453125 -25.925781 73.453125 -32.625 C 73.453125 -35.769531 71.601562 -38.023438 67.90625 -39.390625 C 64.21875 -40.765625 58.546875 -41.929688 50.890625 -42.890625 C 41.859375 -44.253906 34.398438 -45.820312 28.515625 -47.59375 C 22.640625 -49.375 17.546875 -52.519531 13.234375 -57.03125 C 8.921875 -61.550781 6.765625 -67.984375 6.765625 -76.328125 C 6.765625 -83.304688 8.78125 -89.492188 12.8125 -94.890625 C 16.851562 -100.296875 22.738281 -104.503906 30.46875 -107.515625 C 38.195312 -110.523438 47.328125 -112.03125 57.859375 -112.03125 C 65.660156 -112.03125 73.425781 -111.175781 81.15625 -109.46875 C 88.882812 -107.757812 95.28125 -105.398438 100.34375 -102.390625 L 89.671875 -79.609375 C 79.953125 -85.078125 69.347656 -87.8125 57.859375 -87.8125 C 51.023438 -87.8125 45.894531 -86.851562 42.46875 -84.9375 C 39.050781 -83.03125 37.34375 -80.570312 37.34375 -77.5625 C 37.34375 -74.144531 39.1875 -71.75 42.875 -70.375 C 46.570312 -69.007812 52.457031 -67.710938 60.53125 -66.484375 C 69.5625 -64.972656 76.945312 -63.363281 82.6875 -61.65625 C 88.4375 -59.945312 93.429688 -56.832031 97.671875 -52.3125 C 101.910156 -47.800781 104.03125 -41.515625 104.03125 -33.453125 C 104.03125 -26.609375 101.976562 -20.519531 97.875 -15.1875 C 93.769531 -9.851562 87.785156 -5.710938 79.921875 -2.765625 C 72.054688 0.171875 62.71875 1.640625 51.90625 1.640625 Z M 51.90625 1.640625 "/></g></g></g><g fill="#a83b3b" fill-opacity="1"><g transform="translate(212.881316, 214.425378)"><g><path d="M 14.78125 -110.390625 L 46.78125 -110.390625 L 46.78125 0 L 14.78125 0 Z M 30.765625 -125.78125 C 24.890625 -125.78125 20.101562 -127.488281 16.40625 -130.90625 C 12.71875 -134.332031 10.875 -138.570312 10.875 -143.625 C 10.875 -148.6875 12.71875 -152.925781 16.40625 -156.34375 C 20.101562 -159.769531 24.890625 -161.484375 30.765625 -161.484375 C 36.648438 -161.484375 41.4375 -159.84375 45.125 -156.5625 C 48.820312 -153.28125 50.671875 -149.175781 50.671875 -144.25 C 50.671875 -138.914062 48.820312 -134.503906 45.125 -131.015625 C 41.4375 -127.523438 36.648438 -125.78125 30.765625 -125.78125 Z M 30.765625 -125.78125 "/></g></g></g><g fill="#a83b3b" fill-opacity="1"><g transform="translate(260.892427, 214.425378)"><g><path d="M 156.140625 -112.03125 C 169.960938 -112.03125 180.941406 -107.957031 189.078125 -99.8125 C 197.210938 -91.675781 201.28125 -79.472656 201.28125 -63.203125 L 201.28125 0 L 169.28125 0 L 169.28125 -58.265625 C 169.28125 -67.023438 167.46875 -73.554688 163.84375 -77.859375 C 160.21875 -82.171875 155.050781 -84.328125 148.34375 -84.328125 C 140.820312 -84.328125 134.875 -81.898438 130.5 -77.046875 C 126.125 -72.191406 123.9375 -64.976562 123.9375 -55.40625 L 123.9375 0 L 91.921875 0 L 91.921875 -58.265625 C 91.921875 -75.640625 84.945312 -84.328125 71 -84.328125 C 63.613281 -84.328125 57.726562 -81.898438 53.34375 -77.046875 C 48.96875 -72.191406 46.78125 -64.976562 46.78125 -55.40625 L 46.78125 0 L 14.78125 0 L 14.78125 -110.390625 L 45.34375 -110.390625 L 45.34375 -97.671875 C 49.445312 -102.316406 54.472656 -105.867188 60.421875 -108.328125 C 66.378906 -110.796875 72.910156 -112.03125 80.015625 -112.03125 C 87.816406 -112.03125 94.863281 -110.488281 101.15625 -107.40625 C 107.445312 -104.332031 112.507812 -99.851562 116.34375 -93.96875 C 120.851562 -99.71875 126.5625 -104.164062 133.46875 -107.3125 C 140.382812 -110.457031 147.941406 -112.03125 156.140625 -112.03125 Z M 156.140625 -112.03125 "/></g></g></g><g fill="#a83b3b" fill-opacity="1"><g transform="translate(462.378149, 214.425378)"><g><path d="M 49.859375 -107.921875 L 78.171875 -107.921875 L 78.171875 -83.3125 L 50.6875 -83.3125 L 50.6875 0 L 18.671875 0 L 18.671875 -83.3125 L 1.640625 -83.3125 L 1.640625 -107.921875 L 18.671875 -107.921875 L 18.671875 -112.859375 C 18.671875 -125.441406 22.394531 -135.425781 29.84375 -142.8125 C 37.300781 -150.195312 47.800781 -153.890625 61.34375 -153.890625 C 66.132812 -153.890625 70.679688 -153.375 74.984375 -152.34375 C 79.296875 -151.320312 82.890625 -149.851562 85.765625 -147.9375 L 77.359375 -124.75 C 73.660156 -127.351562 69.347656 -128.65625 64.421875 -128.65625 C 54.710938 -128.65625 49.859375 -123.316406 49.859375 -112.640625 Z M 49.859375 -107.921875 "/></g></g></g><g fill="#a83b3b" fill-opacity="1"><g transform="translate(528.034743, 214.425378)"><g><path d="M 122.90625 -54.78125 C 122.90625 -54.375 122.703125 -51.503906 122.296875 -46.171875 L 38.78125 -46.171875 C 40.28125 -39.328125 43.832031 -33.921875 49.4375 -29.953125 C 55.050781 -25.984375 62.03125 -24 70.375 -24 C 76.125 -24 81.21875 -24.851562 85.65625 -26.5625 C 90.101562 -28.28125 94.242188 -30.984375 98.078125 -34.671875 L 115.109375 -16.203125 C 104.710938 -4.304688 89.53125 1.640625 69.5625 1.640625 C 57.113281 1.640625 46.097656 -0.785156 36.515625 -5.640625 C 26.941406 -10.492188 19.554688 -17.226562 14.359375 -25.84375 C 9.160156 -34.46875 6.5625 -44.253906 6.5625 -55.203125 C 6.5625 -66.003906 9.125 -75.75 14.25 -84.4375 C 19.382812 -93.125 26.429688 -99.894531 35.390625 -104.75 C 44.347656 -109.601562 54.367188 -112.03125 65.453125 -112.03125 C 76.265625 -112.03125 86.046875 -109.703125 94.796875 -105.046875 C 103.546875 -100.398438 110.414062 -93.734375 115.40625 -85.046875 C 120.40625 -76.359375 122.90625 -66.269531 122.90625 -54.78125 Z M 65.65625 -87.8125 C 58.40625 -87.8125 52.316406 -85.757812 47.390625 -81.65625 C 42.472656 -77.5625 39.46875 -71.957031 38.375 -64.84375 L 92.75 -64.84375 C 91.65625 -71.8125 88.644531 -77.378906 83.71875 -81.546875 C 78.789062 -85.722656 72.769531 -87.8125 65.65625 -87.8125 Z M 65.65625 -87.8125 "/></g></g></g><g fill="#a83b3b" fill-opacity="1"><g transform="translate(643.755252, 214.425378)"><g><path d="M 45.34375 -95.828125 C 49.175781 -101.160156 54.335938 -105.191406 60.828125 -107.921875 C 67.328125 -110.660156 74.820312 -112.03125 83.3125 -112.03125 L 83.3125 -82.484375 C 79.75 -82.753906 77.351562 -82.890625 76.125 -82.890625 C 66.957031 -82.890625 59.773438 -80.320312 54.578125 -75.1875 C 49.378906 -70.0625 46.78125 -62.375 46.78125 -52.125 L 46.78125 0 L 14.78125 0 L 14.78125 -110.390625 L 45.34375 -110.390625 Z M 45.34375 -95.828125 "/></g></g></g></svg>