<svg xmlns="http://www.w3.org/2000/svg" xmlns:xlink="http://www.w3.org/1999/xlink" width="1133" zoomAndPan="magnify" viewBox="0 0 850.5 283.499996" height="377" preserveAspectRatio="xMidYMid meet" version="1.0"><defs><g/></defs><g fill="#016376" fill-opacity="1"><g transform="translate(196.489902, 205.065851)"><g><path d="M 14.765625 -124.484375 L 43.578125 -124.484375 L 43.578125 0 L 14.765625 0 Z M 14.765625 -124.484375 "/></g></g></g><g fill="#016376" fill-opacity="1"><g transform="translate(254.82356, 205.065851)"><g><path d="M 110.265625 -131.953125 L 110.265625 0 L 83.765625 0 L 83.765625 -11.03125 C 76.890625 -2.726562 66.929688 1.421875 53.890625 1.421875 C 44.878906 1.421875 36.726562 -0.59375 29.4375 -4.625 C 22.144531 -8.65625 16.421875 -14.40625 12.265625 -21.875 C 8.117188 -29.34375 6.046875 -38 6.046875 -47.84375 C 6.046875 -57.675781 8.117188 -66.328125 12.265625 -73.796875 C 16.421875 -81.273438 22.144531 -87.03125 29.4375 -91.0625 C 36.726562 -95.09375 44.878906 -97.109375 53.890625 -97.109375 C 66.097656 -97.109375 75.640625 -93.253906 82.515625 -85.546875 L 82.515625 -131.953125 Z M 58.6875 -21.34375 C 65.6875 -21.34375 71.492188 -23.742188 76.109375 -28.546875 C 80.734375 -33.347656 83.046875 -39.78125 83.046875 -47.84375 C 83.046875 -55.90625 80.734375 -62.335938 76.109375 -67.140625 C 71.492188 -71.941406 65.6875 -74.34375 58.6875 -74.34375 C 51.570312 -74.34375 45.703125 -71.941406 41.078125 -67.140625 C 36.453125 -62.335938 34.140625 -55.90625 34.140625 -47.84375 C 34.140625 -39.78125 36.453125 -33.347656 41.078125 -28.546875 C 45.703125 -23.742188 51.570312 -21.34375 58.6875 -21.34375 Z M 58.6875 -21.34375 "/></g></g></g><g fill="#016376" fill-opacity="1"><g transform="translate(377.893356, 205.065851)"><g><path d="M 106.53125 -47.484375 C 106.53125 -47.128906 106.351562 -44.640625 106 -40.015625 L 33.609375 -40.015625 C 34.910156 -34.085938 37.992188 -29.40625 42.859375 -25.96875 C 47.722656 -22.53125 53.769531 -20.8125 61 -20.8125 C 65.976562 -20.8125 70.394531 -21.550781 74.25 -23.03125 C 78.101562 -24.507812 81.691406 -26.851562 85.015625 -30.0625 L 99.765625 -14.046875 C 90.753906 -3.734375 77.59375 1.421875 60.28125 1.421875 C 49.5 1.421875 39.957031 -0.679688 31.65625 -4.890625 C 23.351562 -9.097656 16.945312 -14.9375 12.4375 -22.40625 C 7.9375 -29.875 5.6875 -38.351562 5.6875 -47.84375 C 5.6875 -57.207031 7.910156 -65.648438 12.359375 -73.171875 C 16.804688 -80.703125 22.910156 -86.570312 30.671875 -90.78125 C 38.441406 -95 47.128906 -97.109375 56.734375 -97.109375 C 66.097656 -97.109375 74.570312 -95.09375 82.15625 -91.0625 C 89.75 -87.03125 95.707031 -81.25 100.03125 -73.71875 C 104.363281 -66.1875 106.53125 -57.441406 106.53125 -47.484375 Z M 56.90625 -76.109375 C 50.625 -76.109375 45.347656 -74.332031 41.078125 -70.78125 C 36.804688 -67.226562 34.195312 -62.367188 33.25 -56.203125 L 80.390625 -56.203125 C 79.441406 -62.242188 76.832031 -67.070312 72.5625 -70.6875 C 68.289062 -74.300781 63.070312 -76.109375 56.90625 -76.109375 Z M 56.90625 -76.109375 "/></g></g></g><g fill="#016376" fill-opacity="1"><g transform="translate(490.114508, 205.065851)"><g><path d="M 51.390625 -97.109375 C 66.210938 -97.109375 77.59375 -93.578125 85.53125 -86.515625 C 93.476562 -79.460938 97.453125 -68.820312 97.453125 -54.59375 L 97.453125 0 L 71.5 0 L 71.5 -11.921875 C 66.28125 -3.023438 56.554688 1.421875 42.328125 1.421875 C 34.972656 1.421875 28.597656 0.175781 23.203125 -2.3125 C 17.804688 -4.800781 13.6875 -8.238281 10.84375 -12.625 C 8 -17.007812 6.578125 -21.988281 6.578125 -27.5625 C 6.578125 -36.457031 9.925781 -43.453125 16.625 -48.546875 C 23.320312 -53.648438 33.664062 -56.203125 47.65625 -56.203125 L 69.71875 -56.203125 C 69.71875 -62.242188 67.878906 -66.894531 64.203125 -70.15625 C 60.523438 -73.414062 55.007812 -75.046875 47.65625 -75.046875 C 42.5625 -75.046875 37.550781 -74.242188 32.625 -72.640625 C 27.707031 -71.046875 23.53125 -68.882812 20.09375 -66.15625 L 10.140625 -85.546875 C 15.359375 -89.222656 21.613281 -92.066406 28.90625 -94.078125 C 36.195312 -96.097656 43.691406 -97.109375 51.390625 -97.109375 Z M 49.265625 -17.25 C 54.003906 -17.25 58.210938 -18.34375 61.890625 -20.53125 C 65.566406 -22.726562 68.175781 -25.960938 69.71875 -30.234375 L 69.71875 -40.015625 L 50.6875 -40.015625 C 39.300781 -40.015625 33.609375 -36.28125 33.609375 -28.8125 C 33.609375 -25.25 35 -22.429688 37.78125 -20.359375 C 40.570312 -18.285156 44.398438 -17.25 49.265625 -17.25 Z M 49.265625 -17.25 "/></g></g></g><g fill="#016376" fill-opacity="1"><g transform="translate(599.8458, 205.065851)"><g><path d="M 12.8125 -131.953125 L 40.546875 -131.953125 L 40.546875 0 L 12.8125 0 Z M 12.8125 -131.953125 "/></g></g></g></svg>