<svg xmlns="http://www.w3.org/2000/svg" xmlns:xlink="http://www.w3.org/1999/xlink" width="1133" zoomAndPan="magnify" viewBox="0 0 850.5 283.499996" height="377" preserveAspectRatio="xMidYMid meet" version="1.0"><path fill="#0192ad" d="M 522.230469 207.28125 C 523.105469 206.390625 523.53125 205.320312 523.511719 204.074219 L 523.511719 164.945312 C 523.53125 163.699219 523.105469 162.628906 522.230469 161.738281 C 520.304688 160.023438 517.738281 158.742188 514.316406 157.460938 C 510.46875 155.960938 506.191406 155.324219 501.703125 155.324219 C 493.148438 155.324219 486.734375 157.675781 482.457031 162.378906 C 478.394531 166.867188 476.257812 174.140625 476.257812 183.976562 C 476.257812 194.027344 478.394531 201.503906 482.890625 206.640625 C 487.378906 211.769531 493.578125 214.335938 501.277344 214.335938 C 505.980469 214.335938 510.253906 213.695312 513.890625 212.199219 C 517.3125 210.917969 520.089844 209.417969 522.230469 207.488281 Z M 546.390625 104.21875 L 546.390625 233.367188 L 523.296875 233.367188 L 523.296875 221.390625 C 523.296875 221.390625 515.171875 233.792969 494.644531 233.792969 C 480.320312 233.792969 469.414062 229.304688 461.929688 220.539062 C 454.449219 211.558594 450.601562 200.222656 450.601562 186.753906 C 450.601562 171.570312 455.304688 159.171875 464.070312 150.617188 C 473.050781 141.851562 485.238281 137.574219 500.207031 137.574219 C 504.480469 137.574219 508.332031 137.789062 511.535156 138.429688 C 514.75 139.082031 517.8125 140.152344 520.734375 141.636719 L 523.511719 143.132812 L 523.511719 104.011719 C 523.511719 104.011719 523.511719 101.875 525.4375 101.875 L 544.464844 101.875 C 546.390625 101.875 546.390625 104.222656 546.390625 104.222656 Z M 430.074219 102.082031 C 432.421875 102.082031 432.210938 104.433594 432.210938 104.433594 L 432.210938 124.746094 L 409.332031 124.746094 L 409.332031 104.652344 C 409.332031 104.652344 408.90625 101.863281 411.683594 101.863281 L 430.289062 101.863281 Z M 734.765625 191.457031 C 734.765625 189.320312 734.339844 188.253906 732.628906 187.824219 C 726.640625 186.113281 715.519531 184.398438 706.757812 187.179688 C 693.285156 191.453125 695.632812 205.355469 695.851562 206.640625 C 696.492188 209.84375 700.554688 217.328125 711.03125 218.183594 C 721.078125 218.828125 729.207031 216.261719 733.050781 214.335938 C 734.339844 213.695312 734.765625 212.625 734.765625 211.128906 Z M 717.683594 136.933594 C 747.636719 136.933594 755.554688 156.175781 755.128906 167.515625 L 755.128906 233.152344 L 734.800781 233.152344 L 735.011719 224.386719 C 728.597656 230.585938 721.753906 234.007812 706.347656 233.152344 C 689.230469 232.296875 675.960938 221.820312 675.324219 206.855469 C 674.679688 196.808594 677.035156 183.117188 692.011719 176.273438 C 703.992188 170.929688 722.179688 170.5 735.019531 174.351562 C 735.019531 171.359375 737.796875 152.332031 714.691406 151.472656 C 691.800781 150.402344 686.023438 167.082031 686.023438 167.082031 L 677.035156 164.085938 C 677.035156 164.085938 678.101562 161.523438 678.101562 161.308594 C 681.101562 153.613281 690.726562 137.148438 717.683594 137.148438 Z M 589.15625 175.847656 L 635.558594 175.847656 C 637.261719 175.847656 636.835938 173.925781 636.625 173.285156 C 635.125 167.082031 632.558594 162.59375 628.921875 159.382812 C 624.433594 155.746094 619.300781 153.824219 612.890625 153.824219 C 605.832031 153.824219 599.203125 156.394531 594.929688 160.882812 C 591.078125 164.734375 588.941406 169.007812 588.085938 174.566406 C 588.085938 174.992188 588.085938 176.0625 589.15625 176.0625 Z M 646.203125 152.113281 C 654.109375 161.308594 658.171875 173.925781 658.386719 189.535156 L 587.433594 189.535156 L 587.859375 192.527344 C 589.355469 200.4375 592.777344 205.566406 597.6875 209.203125 C 600.34375 211.035156 603.191406 212.480469 606.242188 213.53125 C 609.289062 214.585938 612.421875 215.210938 615.640625 215.40625 C 625.257812 216.046875 641.5 215.191406 648.765625 201.933594 L 656.886719 204.503906 C 654.324219 211.558594 647.484375 233.367188 615.855469 233.367188 C 599.613281 233.367188 586.578125 229.089844 577.601562 220.539062 C 568.621094 211.984375 564.136719 200.441406 564.136719 186.113281 C 564.136719 171.570312 568.839844 159.8125 578.03125 151.042969 C 587.433594 142.066406 599.1875 137.574219 613.074219 137.574219 C 626.753906 137.574219 638.082031 142.492188 646.203125 151.898438 Z M 110.414062 156.613281 C 110.414062 165.164062 111.699219 173.929688 113.621094 182.269531 C 105.28125 165.804688 100.792969 147.847656 100.792969 129.460938 C 100.792969 62.519531 157.671875 8 227.585938 8 C 281.683594 8 330.003906 41.355469 347.324219 90.109375 C 323.59375 54.398438 282.753906 32.378906 238.917969 32.378906 C 168.148438 32.378906 110.414062 87.96875 110.414062 156.394531 Z M 368.921875 102.507812 C 371.054688 102.507812 371.054688 104.855469 371.054688 104.855469 C 371.273438 106.78125 391.589844 231.222656 392.015625 234.003906 L 361.4375 234.003906 C 361.222656 231.867188 351.175781 167.078125 351.175781 167.078125 C 343.476562 211.558594 299 273.992188 224.382812 273.992188 C 160.445312 273.992188 105.703125 229.304688 92.453125 167.9375 C 93.820312 171.125 95.300781 174.257812 96.898438 177.339844 C 98.492188 180.421875 100.199219 183.4375 102.015625 186.394531 C 103.832031 189.351562 105.75 192.238281 107.777344 195.054688 C 109.804688 197.867188 111.933594 200.605469 114.160156 203.265625 C 116.386719 205.925781 118.707031 208.503906 121.121094 210.996094 C 123.535156 213.484375 126.039062 215.886719 128.628906 218.191406 C 131.21875 220.5 133.886719 222.710938 136.640625 224.824219 C 139.390625 226.9375 142.214844 228.949219 145.113281 230.855469 C 148.011719 232.761719 150.976562 234.5625 154.003906 236.253906 C 157.035156 237.941406 160.121094 239.519531 163.265625 240.984375 C 166.410156 242.453125 169.605469 243.800781 172.847656 245.03125 C 176.09375 246.261719 179.375 247.375 182.699219 248.367188 C 186.023438 249.359375 189.382812 250.230469 192.769531 250.976562 C 196.15625 251.722656 199.566406 252.347656 203 252.84375 C 206.433594 253.34375 209.882812 253.714844 213.339844 253.960938 C 216.800781 254.207031 220.265625 254.328125 223.738281 254.320312 C 247.042969 254.320312 270.351562 248.335938 290.878906 237.429688 L 291.519531 237 L 291.519531 236.148438 C 290.453125 223.320312 281.472656 167.296875 281.472656 167.296875 C 276.976562 188.675781 263.296875 207.28125 242.980469 219.898438 C 226.519531 229.945312 207.703125 234.859375 192.09375 233.148438 C 265.4375 216.902344 272.0625 116.40625 272.703125 104.433594 C 272.703125 104.433594 272.703125 102.082031 274.835938 102.082031 L 298.144531 102.082031 C 300.28125 102.082031 300.28125 104.433594 300.28125 104.433594 C 300.5 106.359375 315.464844 210.703125 315.464844 210.703125 L 317.179688 208.5625 C 341.980469 177.5625 344.757812 145.058594 344.757812 122.390625 C 344.757812 112.132812 344.117188 107.214844 343.691406 104.21875 C 343.691406 104.21875 343.261719 101.863281 345.824219 101.863281 L 368.921875 101.863281 Z M 431.78125 138.210938 L 431.78125 233.527344 L 409.332031 233.527344 L 409.332031 138.214844 Z M 431.78125 138.210938 " fill-opacity="1" fill-rule="nonzero"/></svg>