<svg xmlns="http://www.w3.org/2000/svg" xmlns:xlink="http://www.w3.org/1999/xlink" width="1133" zoomAndPan="magnify" viewBox="0 0 850.5 283.499996" height="377" preserveAspectRatio="xMidYMid meet" version="1.0"><defs><g/></defs><g fill="#ff0000" fill-opacity="1"><g transform="translate(70.423421, 197.822451)"><g><path d="M 88.125 -57.21875 L 111.578125 -57.21875 L 111.578125 -12.203125 C 105.554688 -7.660156 98.582031 -4.171875 90.65625 -1.734375 C 82.726562 0.691406 74.75 1.90625 66.71875 1.90625 C 55.207031 1.90625 44.851562 -0.550781 35.65625 -5.46875 C 26.46875 -10.382812 19.257812 -17.195312 14.03125 -25.90625 C 8.800781 -34.625 6.1875 -44.476562 6.1875 -55.46875 C 6.1875 -66.457031 8.800781 -76.3125 14.03125 -85.03125 C 19.257812 -93.75 26.519531 -100.5625 35.8125 -105.46875 C 45.113281 -110.382812 55.578125 -112.84375 67.203125 -112.84375 C 76.921875 -112.84375 85.738281 -111.203125 93.65625 -107.921875 C 101.582031 -104.648438 108.242188 -99.898438 113.640625 -93.671875 L 97.15625 -78.453125 C 89.226562 -86.796875 79.664062 -90.96875 68.46875 -90.96875 C 61.382812 -90.96875 55.09375 -89.488281 49.59375 -86.53125 C 44.101562 -83.570312 39.828125 -79.394531 36.765625 -74 C 33.703125 -68.613281 32.171875 -62.4375 32.171875 -55.46875 C 32.171875 -48.601562 33.703125 -42.472656 36.765625 -37.078125 C 39.828125 -31.691406 44.078125 -27.492188 49.515625 -24.484375 C 54.960938 -21.472656 61.171875 -19.96875 68.140625 -19.96875 C 75.546875 -19.96875 82.207031 -21.550781 88.125 -24.71875 Z M 88.125 -57.21875 "/></g></g></g><g fill="#ff0000" fill-opacity="1"><g transform="translate(181.990957, 197.822451)"><g><path d="M 51.984375 1.265625 C 43.003906 1.265625 34.945312 -0.609375 27.8125 -4.359375 C 20.675781 -8.109375 15.101562 -13.3125 11.09375 -19.96875 C 7.082031 -26.625 5.078125 -34.175781 5.078125 -42.625 C 5.078125 -51.082031 7.082031 -58.640625 11.09375 -65.296875 C 15.101562 -71.953125 20.675781 -77.15625 27.8125 -80.90625 C 34.945312 -84.65625 43.003906 -86.53125 51.984375 -86.53125 C 60.960938 -86.53125 68.988281 -84.65625 76.0625 -80.90625 C 83.144531 -77.15625 88.691406 -71.953125 92.703125 -65.296875 C 96.722656 -58.640625 98.734375 -51.082031 98.734375 -42.625 C 98.734375 -34.175781 96.722656 -26.625 92.703125 -19.96875 C 88.691406 -13.3125 83.144531 -8.109375 76.0625 -4.359375 C 68.988281 -0.609375 60.960938 1.265625 51.984375 1.265625 Z M 51.984375 -19.015625 C 58.316406 -19.015625 63.515625 -21.15625 67.578125 -25.4375 C 71.648438 -29.71875 73.6875 -35.445312 73.6875 -42.625 C 73.6875 -49.8125 71.648438 -55.546875 67.578125 -59.828125 C 63.515625 -64.109375 58.316406 -66.25 51.984375 -66.25 C 45.640625 -66.25 40.40625 -64.109375 36.28125 -59.828125 C 32.164062 -55.546875 30.109375 -49.8125 30.109375 -42.625 C 30.109375 -35.445312 32.164062 -29.71875 36.28125 -25.4375 C 40.40625 -21.15625 45.640625 -19.015625 51.984375 -19.015625 Z M 51.984375 -19.015625 "/></g></g></g><g fill="#ff0000" fill-opacity="1"><g transform="translate(275.175079, 197.822451)"><g><path d="M 51.984375 1.265625 C 43.003906 1.265625 34.945312 -0.609375 27.8125 -4.359375 C 20.675781 -8.109375 15.101562 -13.3125 11.09375 -19.96875 C 7.082031 -26.625 5.078125 -34.175781 5.078125 -42.625 C 5.078125 -51.082031 7.082031 -58.640625 11.09375 -65.296875 C 15.101562 -71.953125 20.675781 -77.15625 27.8125 -80.90625 C 34.945312 -84.65625 43.003906 -86.53125 51.984375 -86.53125 C 60.960938 -86.53125 68.988281 -84.65625 76.0625 -80.90625 C 83.144531 -77.15625 88.691406 -71.953125 92.703125 -65.296875 C 96.722656 -58.640625 98.734375 -51.082031 98.734375 -42.625 C 98.734375 -34.175781 96.722656 -26.625 92.703125 -19.96875 C 88.691406 -13.3125 83.144531 -8.109375 76.0625 -4.359375 C 68.988281 -0.609375 60.960938 1.265625 51.984375 1.265625 Z M 51.984375 -19.015625 C 58.316406 -19.015625 63.515625 -21.15625 67.578125 -25.4375 C 71.648438 -29.71875 73.6875 -35.445312 73.6875 -42.625 C 73.6875 -49.8125 71.648438 -55.546875 67.578125 -59.828125 C 63.515625 -64.109375 58.316406 -66.25 51.984375 -66.25 C 45.640625 -66.25 40.40625 -64.109375 36.28125 -59.828125 C 32.164062 -55.546875 30.109375 -49.8125 30.109375 -42.625 C 30.109375 -35.445312 32.164062 -29.71875 36.28125 -25.4375 C 40.40625 -21.15625 45.640625 -19.015625 51.984375 -19.015625 Z M 51.984375 -19.015625 "/></g></g></g><g fill="#ff0000" fill-opacity="1"><g transform="translate(368.359202, 197.822451)"><g><path d="M 98.265625 -117.59375 L 98.265625 0 L 74.640625 0 L 74.640625 -9.828125 C 68.515625 -2.429688 59.640625 1.265625 48.015625 1.265625 C 39.984375 1.265625 32.71875 -0.53125 26.21875 -4.125 C 19.726562 -7.71875 14.632812 -12.84375 10.9375 -19.5 C 7.238281 -26.15625 5.390625 -33.863281 5.390625 -42.625 C 5.390625 -51.394531 7.238281 -59.109375 10.9375 -65.765625 C 14.632812 -72.421875 19.726562 -77.546875 26.21875 -81.140625 C 32.71875 -84.734375 39.984375 -86.53125 48.015625 -86.53125 C 58.898438 -86.53125 67.40625 -83.097656 73.53125 -76.234375 L 73.53125 -117.59375 Z M 52.296875 -19.015625 C 58.535156 -19.015625 63.710938 -21.15625 67.828125 -25.4375 C 71.953125 -29.71875 74.015625 -35.445312 74.015625 -42.625 C 74.015625 -49.8125 71.953125 -55.546875 67.828125 -59.828125 C 63.710938 -64.109375 58.535156 -66.25 52.296875 -66.25 C 45.960938 -66.25 40.734375 -64.109375 36.609375 -59.828125 C 32.484375 -55.546875 30.421875 -49.8125 30.421875 -42.625 C 30.421875 -35.445312 32.484375 -29.71875 36.609375 -25.4375 C 40.734375 -21.15625 45.960938 -19.015625 52.296875 -19.015625 Z M 52.296875 -19.015625 "/></g></g></g><g fill="#ff0000" fill-opacity="1"><g transform="translate(467.406987, 197.822451)"><g><path d="M 148.34375 -85.265625 L 117.4375 0 L 93.671875 0 L 74.484375 -52.9375 L 54.671875 0 L 30.90625 0 L 0.15625 -85.265625 L 23.453125 -85.265625 L 43.578125 -27.578125 L 64.5 -85.265625 L 85.421875 -85.265625 L 105.703125 -27.578125 L 126.46875 -85.265625 Z M 148.34375 -85.265625 "/></g></g></g><g fill="#ff0000" fill-opacity="1"><g transform="translate(605.281815, 197.822451)"><g><path d="M 94.9375 -42.3125 C 94.9375 -42 94.773438 -39.78125 94.453125 -35.65625 L 29.953125 -35.65625 C 31.117188 -30.375 33.863281 -26.203125 38.1875 -23.140625 C 42.519531 -20.078125 47.910156 -18.546875 54.359375 -18.546875 C 58.796875 -18.546875 62.726562 -19.203125 66.15625 -20.515625 C 69.59375 -21.835938 72.789062 -23.925781 75.75 -26.78125 L 88.90625 -12.515625 C 80.875 -3.328125 69.144531 1.265625 53.71875 1.265625 C 44.101562 1.265625 35.597656 -0.609375 28.203125 -4.359375 C 20.804688 -8.109375 15.101562 -13.3125 11.09375 -19.96875 C 7.082031 -26.625 5.078125 -34.175781 5.078125 -42.625 C 5.078125 -50.976562 7.054688 -58.507812 11.015625 -65.21875 C 14.972656 -71.925781 20.410156 -77.15625 27.328125 -80.90625 C 34.253906 -84.65625 42 -86.53125 50.5625 -86.53125 C 58.90625 -86.53125 66.457031 -84.734375 73.21875 -81.140625 C 79.976562 -77.546875 85.285156 -72.394531 89.140625 -65.6875 C 93.003906 -58.976562 94.9375 -51.1875 94.9375 -42.3125 Z M 50.71875 -67.828125 C 45.113281 -67.828125 40.410156 -66.242188 36.609375 -63.078125 C 32.804688 -59.910156 30.484375 -55.578125 29.640625 -50.078125 L 71.640625 -50.078125 C 70.785156 -55.460938 68.457031 -59.765625 64.65625 -62.984375 C 60.851562 -66.210938 56.207031 -67.828125 50.71875 -67.828125 Z M 50.71875 -67.828125 "/></g></g></g><g fill="#ff0000" fill-opacity="1"><g transform="translate(694.662449, 197.822451)"><g><path d="M 11.40625 -117.59375 L 36.140625 -117.59375 L 36.140625 0 L 11.40625 0 Z M 11.40625 -117.59375 "/></g></g></g><g fill="#ff0000" fill-opacity="1"><g transform="translate(731.745464, 197.822451)"><g><path d="M 11.40625 -117.59375 L 36.140625 -117.59375 L 36.140625 0 L 11.40625 0 Z M 11.40625 -117.59375 "/></g></g></g></svg>