<svg xmlns="http://www.w3.org/2000/svg" xmlns:xlink="http://www.w3.org/1999/xlink" width="1133" zoomAndPan="magnify" viewBox="0 0 850.5 283.499996" height="377" preserveAspectRatio="xMidYMid meet" version="1.0"><defs><g/></defs><g fill="#ff0000" fill-opacity="1"><g transform="translate(28.795675, 206.470038)"><g><path d="M 56.953125 2.1875 C 46.890625 2.1875 37.15625 0.820312 27.75 -1.90625 C 18.34375 -4.632812 10.789062 -8.1875 5.09375 -12.5625 L 15.109375 -34.75 C 20.566406 -30.75 27.054688 -27.535156 34.578125 -25.109375 C 42.097656 -22.679688 49.617188 -21.46875 57.140625 -21.46875 C 65.503906 -21.46875 71.6875 -22.710938 75.6875 -25.203125 C 79.695312 -27.691406 81.703125 -31 81.703125 -35.125 C 81.703125 -38.15625 80.519531 -40.671875 78.15625 -42.671875 C 75.789062 -44.671875 72.753906 -46.273438 69.046875 -47.484375 C 65.347656 -48.703125 60.347656 -50.039062 54.046875 -51.5 C 44.335938 -53.800781 36.390625 -56.101562 30.203125 -58.40625 C 24.015625 -60.71875 18.707031 -64.421875 14.28125 -69.515625 C 9.851562 -74.609375 7.640625 -81.398438 7.640625 -89.890625 C 7.640625 -97.296875 9.640625 -104 13.640625 -110 C 17.648438 -116 23.6875 -120.757812 31.75 -124.28125 C 39.820312 -127.800781 49.679688 -129.5625 61.328125 -129.5625 C 69.453125 -129.5625 77.394531 -128.585938 85.15625 -126.640625 C 92.925781 -124.703125 99.722656 -121.914062 105.546875 -118.28125 L 96.4375 -95.890625 C 84.675781 -102.566406 72.910156 -105.90625 61.140625 -105.90625 C 52.890625 -105.90625 46.789062 -104.570312 42.84375 -101.90625 C 38.90625 -99.238281 36.9375 -95.71875 36.9375 -91.34375 C 36.9375 -86.976562 39.210938 -83.734375 43.765625 -81.609375 C 48.316406 -79.484375 55.257812 -77.390625 64.59375 -75.328125 C 74.300781 -73.023438 82.25 -70.722656 88.4375 -68.421875 C 94.625 -66.117188 99.929688 -62.476562 104.359375 -57.5 C 108.785156 -52.53125 111 -45.796875 111 -37.296875 C 111 -30.023438 108.96875 -23.382812 104.90625 -17.375 C 100.84375 -11.375 94.742188 -6.613281 86.609375 -3.09375 C 78.484375 0.425781 68.597656 2.1875 56.953125 2.1875 Z M 56.953125 2.1875 "/></g></g></g><g fill="#ff0000" fill-opacity="1"><g transform="translate(144.889127, 206.470038)"><g><path d="M 131.921875 -127.375 L 131.921875 0 L 102.453125 0 L 102.453125 -52.21875 L 44.578125 -52.21875 L 44.578125 0 L 15.109375 0 L 15.109375 -127.375 L 44.578125 -127.375 L 44.578125 -77.15625 L 102.453125 -77.15625 L 102.453125 -127.375 Z M 131.921875 -127.375 "/></g></g></g><g fill="#ff0000" fill-opacity="1"><g transform="translate(291.91659, 206.470038)"><g><path d="M 15.109375 -127.375 L 44.578125 -127.375 L 44.578125 0 L 15.109375 0 Z M 15.109375 -127.375 "/></g></g></g><g fill="#ff0000" fill-opacity="1"><g transform="translate(351.600989, 206.470038)"><g><path d="M 137.5625 -127.375 L 82.4375 0 L 53.3125 0 L -1.640625 -127.375 L 30.203125 -127.375 L 68.96875 -36.390625 L 108.265625 -127.375 Z M 137.5625 -127.375 "/></g></g></g><g fill="#ff0000" fill-opacity="1"><g transform="translate(487.346645, 206.470038)"><g><path d="M 98.984375 -27.296875 L 39.84375 -27.296875 L 28.5625 0 L -1.640625 0 L 55.140625 -127.375 L 84.25 -127.375 L 141.203125 0 L 110.265625 0 Z M 89.703125 -49.671875 L 69.515625 -98.4375 L 49.3125 -49.671875 Z M 89.703125 -49.671875 "/></g></g></g><g fill="#ff0000" fill-opacity="1"><g transform="translate(626.731573, 206.470038)"><g><path d="M 61.5 -50.046875 L 44.40625 -32.203125 L 44.40625 0 L 15.109375 0 L 15.109375 -127.375 L 44.40625 -127.375 L 44.40625 -67.875 L 100.8125 -127.375 L 133.5625 -127.375 L 80.796875 -70.609375 L 136.65625 0 L 102.265625 0 Z M 61.5 -50.046875 "/></g></g></g><g fill="#ff0000" fill-opacity="1"><g transform="translate(761.385447, 206.470038)"><g><path d="M 15.109375 -127.375 L 44.578125 -127.375 L 44.578125 0 L 15.109375 0 Z M 15.109375 -127.375 "/></g></g></g></svg>