<svg xmlns="http://www.w3.org/2000/svg" xmlns:xlink="http://www.w3.org/1999/xlink" width="1133" zoomAndPan="magnify" viewBox="0 0 850.5 283.499996" height="377" preserveAspectRatio="xMidYMid meet" version="1.0"><defs><g/></defs><g fill="#000000" fill-opacity="1"><g transform="translate(75.867857, 188.975454)"><g><path d="M 96.859375 -93.515625 L 96.859375 0 L 75.21875 0 L 75.21875 -38.34375 L 32.734375 -38.34375 L 32.734375 0 L 11.09375 0 L 11.09375 -93.515625 L 32.734375 -93.515625 L 32.734375 -56.640625 L 75.21875 -56.640625 L 75.21875 -93.515625 Z M 96.859375 -93.515625 "/></g></g></g><g fill="#000000" fill-opacity="1"><g transform="translate(174.858898, 188.975454)"><g><path d="M 56.375 1.609375 C 46.664062 1.609375 37.914062 -0.484375 30.125 -4.671875 C 22.332031 -8.859375 16.226562 -14.625 11.8125 -21.96875 C 7.40625 -29.320312 5.203125 -37.585938 5.203125 -46.765625 C 5.203125 -55.929688 7.40625 -64.1875 11.8125 -71.53125 C 16.226562 -78.882812 22.332031 -84.65625 30.125 -88.84375 C 37.914062 -93.03125 46.664062 -95.125 56.375 -95.125 C 66.082031 -95.125 74.8125 -93.03125 82.5625 -88.84375 C 90.3125 -84.65625 96.410156 -78.882812 100.859375 -71.53125 C 105.316406 -64.1875 107.546875 -55.929688 107.546875 -46.765625 C 107.546875 -37.585938 105.316406 -29.320312 100.859375 -21.96875 C 96.410156 -14.625 90.3125 -8.859375 82.5625 -4.671875 C 74.8125 -0.484375 66.082031 1.609375 56.375 1.609375 Z M 56.375 -16.828125 C 61.894531 -16.828125 66.878906 -18.097656 71.328125 -20.640625 C 75.785156 -23.179688 79.285156 -26.722656 81.828125 -31.265625 C 84.367188 -35.804688 85.640625 -40.972656 85.640625 -46.765625 C 85.640625 -52.546875 84.367188 -57.707031 81.828125 -62.25 C 79.285156 -66.789062 75.785156 -70.332031 71.328125 -72.875 C 66.878906 -75.414062 61.894531 -76.6875 56.375 -76.6875 C 50.851562 -76.6875 45.863281 -75.414062 41.40625 -72.875 C 36.957031 -70.332031 33.460938 -66.789062 30.921875 -62.25 C 28.390625 -57.707031 27.125 -52.546875 27.125 -46.765625 C 27.125 -40.972656 28.390625 -35.804688 30.921875 -31.265625 C 33.460938 -26.722656 36.957031 -23.179688 41.40625 -20.640625 C 45.863281 -18.097656 50.851562 -16.828125 56.375 -16.828125 Z M 56.375 -16.828125 "/></g></g></g><g fill="#000000" fill-opacity="1"><g transform="translate(278.659256, 188.975454)"><g><path d="M 32.734375 -76.15625 L 32.734375 -51.4375 L 76.015625 -51.4375 L 76.015625 -34.0625 L 32.734375 -34.0625 L 32.734375 0 L 11.09375 0 L 11.09375 -93.515625 L 81.765625 -93.515625 L 81.765625 -76.15625 Z M 32.734375 -76.15625 "/></g></g></g><g fill="#000000" fill-opacity="1"><g transform="translate(355.073239, 188.975454)"><g><path d="M 96.1875 0 L 96.046875 -56.109375 L 68.53125 -9.890625 L 58.78125 -9.890625 L 31.390625 -54.90625 L 31.390625 0 L 11.09375 0 L 11.09375 -93.515625 L 28.984375 -93.515625 L 63.984375 -35.40625 L 98.453125 -93.515625 L 116.234375 -93.515625 L 116.5 0 Z M 96.1875 0 "/></g></g></g><g fill="#000000" fill-opacity="1"><g transform="translate(473.702286, 188.975454)"><g><path d="M 72.671875 -20.046875 L 29.25 -20.046875 L 20.96875 0 L -1.203125 0 L 40.484375 -93.515625 L 61.859375 -93.515625 L 103.671875 0 L 80.953125 0 Z M 65.859375 -36.46875 L 51.03125 -72.28125 L 36.203125 -36.46875 Z M 65.859375 -36.46875 "/></g></g></g><g fill="#000000" fill-opacity="1"><g transform="translate(567.082469, 188.975454)"><g><path d="M 96.859375 -93.515625 L 96.859375 0 L 79.09375 0 L 32.46875 -56.78125 L 32.46875 0 L 11.09375 0 L 11.09375 -93.515625 L 28.984375 -93.515625 L 75.484375 -36.734375 L 75.484375 -93.515625 Z M 96.859375 -93.515625 "/></g></g></g><g fill="#000000" fill-opacity="1"><g transform="translate(666.07352, 188.975454)"><g><path d="M 96.859375 -93.515625 L 96.859375 0 L 79.09375 0 L 32.46875 -56.78125 L 32.46875 0 L 11.09375 0 L 11.09375 -93.515625 L 28.984375 -93.515625 L 75.484375 -36.734375 L 75.484375 -93.515625 Z M 96.859375 -93.515625 "/></g></g></g></svg>