<svg xmlns="http://www.w3.org/2000/svg" xmlns:xlink="http://www.w3.org/1999/xlink" width="1133" zoomAndPan="magnify" viewBox="0 0 850.5 283.499996" height="377" preserveAspectRatio="xMidYMid meet" version="1.0"><defs><g/></defs><g fill="#016376" fill-opacity="1"><g transform="translate(186.010985, 204.841416)"><g><path d="M 128.9375 -124.484375 L 128.9375 0 L 105.28125 0 L 43.21875 -75.578125 L 43.21875 0 L 14.765625 0 L 14.765625 -124.484375 L 38.59375 -124.484375 L 100.484375 -48.90625 L 100.484375 -124.484375 Z M 128.9375 -124.484375 "/></g></g></g><g fill="#016376" fill-opacity="1"><g transform="translate(329.704854, 204.841416)"><g><path d="M 12.8125 -95.6875 L 40.546875 -95.6875 L 40.546875 0 L 12.8125 0 Z M 26.671875 -109.015625 C 21.578125 -109.015625 17.425781 -110.492188 14.21875 -113.453125 C 11.019531 -116.421875 9.421875 -120.097656 9.421875 -124.484375 C 9.421875 -128.878906 11.019531 -132.554688 14.21875 -135.515625 C 17.425781 -138.484375 21.578125 -139.96875 26.671875 -139.96875 C 31.773438 -139.96875 35.925781 -138.539062 39.125 -135.6875 C 42.320312 -132.84375 43.921875 -129.289062 43.921875 -125.03125 C 43.921875 -120.40625 42.320312 -116.578125 39.125 -113.546875 C 35.925781 -110.523438 31.773438 -109.015625 26.671875 -109.015625 Z M 26.671875 -109.015625 "/></g></g></g><g fill="#016376" fill-opacity="1"><g transform="translate(383.234383, 204.841416)"><g><path d="M 53.890625 -37.53125 L 40.546875 -24.359375 L 40.546875 0 L 12.8125 0 L 12.8125 -131.953125 L 40.546875 -131.953125 L 40.546875 -57.265625 L 81.09375 -95.6875 L 114.171875 -95.6875 L 74.34375 -55.125 L 117.734375 0 L 84.125 0 Z M 53.890625 -37.53125 "/></g></g></g><g fill="#016376" fill-opacity="1"><g transform="translate(500.608087, 204.841416)"><g><path d="M 51.390625 -97.109375 C 66.210938 -97.109375 77.59375 -93.578125 85.53125 -86.515625 C 93.476562 -79.460938 97.453125 -68.820312 97.453125 -54.59375 L 97.453125 0 L 71.5 0 L 71.5 -11.921875 C 66.28125 -3.023438 56.554688 1.421875 42.328125 1.421875 C 34.972656 1.421875 28.597656 0.175781 23.203125 -2.3125 C 17.804688 -4.800781 13.6875 -8.238281 10.84375 -12.625 C 8 -17.007812 6.578125 -21.988281 6.578125 -27.5625 C 6.578125 -36.457031 9.925781 -43.453125 16.625 -48.546875 C 23.320312 -53.648438 33.664062 -56.203125 47.65625 -56.203125 L 69.71875 -56.203125 C 69.71875 -62.242188 67.878906 -66.894531 64.203125 -70.15625 C 60.523438 -73.414062 55.007812 -75.046875 47.65625 -75.046875 C 42.5625 -75.046875 37.550781 -74.242188 32.625 -72.640625 C 27.707031 -71.046875 23.53125 -68.882812 20.09375 -66.15625 L 10.140625 -85.546875 C 15.359375 -89.222656 21.613281 -92.066406 28.90625 -94.078125 C 36.195312 -96.097656 43.691406 -97.109375 51.390625 -97.109375 Z M 49.265625 -17.25 C 54.003906 -17.25 58.210938 -18.34375 61.890625 -20.53125 C 65.566406 -22.726562 68.175781 -25.960938 69.71875 -30.234375 L 69.71875 -40.015625 L 50.6875 -40.015625 C 39.300781 -40.015625 33.609375 -36.28125 33.609375 -28.8125 C 33.609375 -25.25 35 -22.429688 37.78125 -20.359375 C 40.570312 -18.285156 44.398438 -17.25 49.265625 -17.25 Z M 49.265625 -17.25 "/></g></g></g><g fill="#016376" fill-opacity="1"><g transform="translate(610.334721, 204.841416)"><g><path d="M 12.8125 -95.6875 L 40.546875 -95.6875 L 40.546875 0 L 12.8125 0 Z M 26.671875 -109.015625 C 21.578125 -109.015625 17.425781 -110.492188 14.21875 -113.453125 C 11.019531 -116.421875 9.421875 -120.097656 9.421875 -124.484375 C 9.421875 -128.878906 11.019531 -132.554688 14.21875 -135.515625 C 17.425781 -138.484375 21.578125 -139.96875 26.671875 -139.96875 C 31.773438 -139.96875 35.925781 -138.539062 39.125 -135.6875 C 42.320312 -132.84375 43.921875 -129.289062 43.921875 -125.03125 C 43.921875 -120.40625 42.320312 -116.578125 39.125 -113.546875 C 35.925781 -110.523438 31.773438 -109.015625 26.671875 -109.015625 Z M 26.671875 -109.015625 "/></g></g></g></svg>