<svg xmlns="http://www.w3.org/2000/svg" xmlns:xlink="http://www.w3.org/1999/xlink" width="1133" zoomAndPan="magnify" viewBox="0 0 850.5 283.499996" height="377" preserveAspectRatio="xMidYMid meet" version="1.0"><defs><g/></defs><g fill="#544a4a" fill-opacity="1"><g transform="translate(93.268429, 214.425378)"><g><path d="M 108.546875 0 L 80.84375 -40.015625 L 50.265625 -40.015625 L 50.265625 0 L 17.03125 0 L 17.03125 -143.625 L 79.203125 -143.625 C 91.921875 -143.625 102.960938 -141.503906 112.328125 -137.265625 C 121.703125 -133.023438 128.921875 -127.003906 133.984375 -119.203125 C 139.046875 -111.410156 141.578125 -102.179688 141.578125 -91.515625 C 141.578125 -80.847656 139.007812 -71.648438 133.875 -63.921875 C 128.75 -56.191406 121.46875 -50.273438 112.03125 -46.171875 L 144.25 0 Z M 107.921875 -91.515625 C 107.921875 -99.585938 105.320312 -105.773438 100.125 -110.078125 C 94.925781 -114.390625 87.335938 -116.546875 77.359375 -116.546875 L 50.265625 -116.546875 L 50.265625 -66.484375 L 77.359375 -66.484375 C 87.335938 -66.484375 94.925781 -68.671875 100.125 -73.046875 C 105.320312 -77.421875 107.921875 -83.578125 107.921875 -91.515625 Z M 107.921875 -91.515625 "/></g></g></g><g fill="#544a4a" fill-opacity="1"><g transform="translate(230.327653, 214.425378)"><g><path d="M 67.296875 1.640625 C 55.671875 1.640625 45.238281 -0.785156 36 -5.640625 C 26.769531 -10.492188 19.554688 -17.226562 14.359375 -25.84375 C 9.160156 -34.46875 6.5625 -44.253906 6.5625 -55.203125 C 6.5625 -66.140625 9.160156 -75.914062 14.359375 -84.53125 C 19.554688 -93.15625 26.769531 -99.894531 36 -104.75 C 45.238281 -109.601562 55.671875 -112.03125 67.296875 -112.03125 C 78.929688 -112.03125 89.328125 -109.601562 98.484375 -104.75 C 107.648438 -99.894531 114.832031 -93.15625 120.03125 -84.53125 C 125.226562 -75.914062 127.828125 -66.140625 127.828125 -55.203125 C 127.828125 -44.253906 125.226562 -34.46875 120.03125 -25.84375 C 114.832031 -17.226562 107.648438 -10.492188 98.484375 -5.640625 C 89.328125 -0.785156 78.929688 1.640625 67.296875 1.640625 Z M 67.296875 -24.625 C 75.503906 -24.625 82.238281 -27.394531 87.5 -32.9375 C 92.769531 -38.476562 95.40625 -45.898438 95.40625 -55.203125 C 95.40625 -64.492188 92.769531 -71.910156 87.5 -77.453125 C 82.238281 -82.992188 75.503906 -85.765625 67.296875 -85.765625 C 59.085938 -85.765625 52.316406 -82.992188 46.984375 -77.453125 C 41.648438 -71.910156 38.984375 -64.492188 38.984375 -55.203125 C 38.984375 -45.898438 41.648438 -38.476562 46.984375 -32.9375 C 52.316406 -27.394531 59.085938 -24.625 67.296875 -24.625 Z M 67.296875 -24.625 "/></g></g></g><g fill="#544a4a" fill-opacity="1"><g transform="translate(350.972483, 214.425378)"><g><path d="M 14.78125 -110.390625 L 46.78125 -110.390625 L 46.78125 0 L 14.78125 0 Z M 30.765625 -125.78125 C 24.890625 -125.78125 20.101562 -127.488281 16.40625 -130.90625 C 12.71875 -134.332031 10.875 -138.570312 10.875 -143.625 C 10.875 -148.6875 12.71875 -152.925781 16.40625 -156.34375 C 20.101562 -159.769531 24.890625 -161.484375 30.765625 -161.484375 C 36.648438 -161.484375 41.4375 -159.84375 45.125 -156.5625 C 48.820312 -153.28125 50.671875 -149.175781 50.671875 -144.25 C 50.671875 -138.914062 48.820312 -134.503906 45.125 -131.015625 C 41.4375 -127.523438 36.648438 -125.78125 30.765625 -125.78125 Z M 30.765625 -125.78125 "/></g></g></g><g fill="#544a4a" fill-opacity="1"><g transform="translate(398.983602, 214.425378)"><g><path d="M 51.90625 1.640625 C 42.75 1.640625 33.789062 0.515625 25.03125 -1.734375 C 16.28125 -3.992188 9.304688 -6.835938 4.109375 -10.265625 L 14.78125 -33.234375 C 19.695312 -30.085938 25.644531 -27.523438 32.625 -25.546875 C 39.601562 -23.566406 46.441406 -22.578125 53.140625 -22.578125 C 66.679688 -22.578125 73.453125 -25.925781 73.453125 -32.625 C 73.453125 -35.769531 71.601562 -38.023438 67.90625 -39.390625 C 64.21875 -40.765625 58.546875 -41.929688 50.890625 -42.890625 C 41.859375 -44.253906 34.398438 -45.820312 28.515625 -47.59375 C 22.640625 -49.375 17.546875 -52.519531 13.234375 -57.03125 C 8.921875 -61.550781 6.765625 -67.984375 6.765625 -76.328125 C 6.765625 -83.304688 8.78125 -89.492188 12.8125 -94.890625 C 16.851562 -100.296875 22.738281 -104.503906 30.46875 -107.515625 C 38.195312 -110.523438 47.328125 -112.03125 57.859375 -112.03125 C 65.660156 -112.03125 73.425781 -111.175781 81.15625 -109.46875 C 88.882812 -107.757812 95.28125 -105.398438 100.34375 -102.390625 L 89.671875 -79.609375 C 79.953125 -85.078125 69.347656 -87.8125 57.859375 -87.8125 C 51.023438 -87.8125 45.894531 -86.851562 42.46875 -84.9375 C 39.050781 -83.03125 37.34375 -80.570312 37.34375 -77.5625 C 37.34375 -74.144531 39.1875 -71.75 42.875 -70.375 C 46.570312 -69.007812 52.457031 -67.710938 60.53125 -66.484375 C 69.5625 -64.972656 76.945312 -63.363281 82.6875 -61.65625 C 88.4375 -59.945312 93.429688 -56.832031 97.671875 -52.3125 C 101.910156 -47.800781 104.03125 -41.515625 104.03125 -33.453125 C 104.03125 -26.609375 101.976562 -20.519531 97.875 -15.1875 C 93.769531 -9.851562 87.785156 -5.710938 79.921875 -2.765625 C 72.054688 0.171875 62.71875 1.640625 51.90625 1.640625 Z M 51.90625 1.640625 "/></g></g></g><g fill="#544a4a" fill-opacity="1"><g transform="translate(494.186095, 214.425378)"><g><path d="M 67.296875 1.640625 C 55.671875 1.640625 45.238281 -0.785156 36 -5.640625 C 26.769531 -10.492188 19.554688 -17.226562 14.359375 -25.84375 C 9.160156 -34.46875 6.5625 -44.253906 6.5625 -55.203125 C 6.5625 -66.140625 9.160156 -75.914062 14.359375 -84.53125 C 19.554688 -93.15625 26.769531 -99.894531 36 -104.75 C 45.238281 -109.601562 55.671875 -112.03125 67.296875 -112.03125 C 78.929688 -112.03125 89.328125 -109.601562 98.484375 -104.75 C 107.648438 -99.894531 114.832031 -93.15625 120.03125 -84.53125 C 125.226562 -75.914062 127.828125 -66.140625 127.828125 -55.203125 C 127.828125 -44.253906 125.226562 -34.46875 120.03125 -25.84375 C 114.832031 -17.226562 107.648438 -10.492188 98.484375 -5.640625 C 89.328125 -0.785156 78.929688 1.640625 67.296875 1.640625 Z M 67.296875 -24.625 C 75.503906 -24.625 82.238281 -27.394531 87.5 -32.9375 C 92.769531 -38.476562 95.40625 -45.898438 95.40625 -55.203125 C 95.40625 -64.492188 92.769531 -71.910156 87.5 -77.453125 C 82.238281 -82.992188 75.503906 -85.765625 67.296875 -85.765625 C 59.085938 -85.765625 52.316406 -82.992188 46.984375 -77.453125 C 41.648438 -71.910156 38.984375 -64.492188 38.984375 -55.203125 C 38.984375 -45.898438 41.648438 -38.476562 46.984375 -32.9375 C 52.316406 -27.394531 59.085938 -24.625 67.296875 -24.625 Z M 67.296875 -24.625 "/></g></g></g><g fill="#544a4a" fill-opacity="1"><g transform="translate(614.830925, 214.425378)"><g><path d="M 81.875 -112.03125 C 95.550781 -112.03125 106.59375 -107.925781 115 -99.71875 C 123.414062 -91.507812 127.625 -79.335938 127.625 -63.203125 L 127.625 0 L 95.625 0 L 95.625 -58.265625 C 95.625 -67.023438 93.707031 -73.554688 89.875 -77.859375 C 86.039062 -82.171875 80.5 -84.328125 73.25 -84.328125 C 65.175781 -84.328125 58.742188 -81.832031 53.953125 -76.84375 C 49.171875 -71.851562 46.78125 -64.429688 46.78125 -54.578125 L 46.78125 0 L 14.78125 0 L 14.78125 -110.390625 L 45.34375 -110.390625 L 45.34375 -97.46875 C 49.582031 -102.113281 54.847656 -105.703125 61.140625 -108.234375 C 67.429688 -110.765625 74.34375 -112.03125 81.875 -112.03125 Z M 81.875 -112.03125 "/></g></g></g></svg>