<svg xmlns="http://www.w3.org/2000/svg" xmlns:xlink="http://www.w3.org/1999/xlink" width="1133" zoomAndPan="magnify" viewBox="0 0 850.5 283.499996" height="377" preserveAspectRatio="xMidYMid meet" version="1.0"><defs><g/></defs><g fill="#016376" fill-opacity="1"><g transform="translate(72.202321, 210.735603)"><g><path d="M 94.546875 0 L 85.09375 -25.4375 L 33.859375 -25.4375 L 24.40625 0 L 0 0 L 47.625 -123.421875 L 71.34375 -123.421875 L 118.953125 0 Z M 42.625 -48.484375 L 76.5 -48.484375 L 59.484375 -93.859375 Z M 42.625 -48.484375 "/></g></g></g><g fill="#016376" fill-opacity="1"><g transform="translate(191.159841, 210.735603)"><g><path d="M 4.640625 -123.421875 L 28.875 -123.421875 L 59.828125 -35.75 L 91.453125 -123.421875 L 115.515625 -123.421875 L 71 0 L 48.484375 0 Z M 4.640625 -123.421875 "/></g></g></g><g fill="#016376" fill-opacity="1"><g transform="translate(311.492575, 210.735603)"><g><path d="M 94.546875 0 L 85.09375 -25.4375 L 33.859375 -25.4375 L 24.40625 0 L 0 0 L 47.625 -123.421875 L 71.34375 -123.421875 L 118.953125 0 Z M 42.625 -48.484375 L 76.5 -48.484375 L 59.484375 -93.859375 Z M 42.625 -48.484375 "/></g></g></g><g fill="#016376" fill-opacity="1"><g transform="translate(430.450095, 210.735603)"><g><path d="M 37.640625 -123.421875 L 37.640625 -22.34375 L 71.859375 -22.34375 L 71.859375 0 L 14.09375 0 L 14.09375 -123.421875 Z M 37.640625 -123.421875 "/></g></g></g><g fill="#016376" fill-opacity="1"><g transform="translate(506.08784, 210.735603)"><g><path d="M 72.71875 2.921875 C 60.6875 2.921875 49.738281 0.03125 39.875 -5.75 C 30.019531 -11.539062 22.253906 -19.394531 16.578125 -29.3125 C 10.910156 -39.226562 8.078125 -50.085938 8.078125 -61.890625 C 8.078125 -73.804688 10.96875 -84.71875 16.75 -94.625 C 22.539062 -104.539062 30.363281 -112.332031 40.21875 -118 C 50.082031 -123.675781 60.800781 -126.515625 72.375 -126.515625 C 83.71875 -126.515625 94.285156 -123.675781 104.078125 -118 C 113.878906 -112.332031 121.734375 -104.539062 127.640625 -94.625 C 133.546875 -84.71875 136.5 -73.632812 136.5 -61.375 C 136.5 -49.457031 133.660156 -38.597656 127.984375 -28.796875 C 122.304688 -18.992188 114.597656 -11.253906 104.859375 -5.578125 C 95.117188 0.0859375 84.40625 2.921875 72.71875 2.921875 Z M 72.546875 -19.59375 C 79.878906 -19.59375 86.609375 -21.453125 92.734375 -25.171875 C 98.867188 -28.898438 103.738281 -33.972656 107.34375 -40.390625 C 110.957031 -46.816406 112.765625 -53.867188 112.765625 -61.546875 C 112.765625 -69.109375 111.015625 -76.125 107.515625 -82.59375 C 104.023438 -89.070312 99.1875 -94.257812 93 -98.15625 C 86.8125 -102.050781 79.878906 -104 72.203125 -104 C 64.867188 -104 58.101562 -102.191406 51.90625 -98.578125 C 45.71875 -94.972656 40.816406 -89.929688 37.203125 -83.453125 C 33.597656 -76.984375 31.796875 -69.625 31.796875 -61.375 C 31.796875 -53.238281 33.65625 -45.988281 37.375 -39.625 C 41.101562 -33.257812 46.0625 -28.328125 52.25 -24.828125 C 58.445312 -21.335938 65.210938 -19.59375 72.546875 -19.59375 Z M 72.546875 -19.59375 "/></g></g></g><g fill="#016376" fill-opacity="1"><g transform="translate(650.487167, 210.735603)"><g><path d="M 89.5625 -123.421875 L 113.109375 -123.421875 L 113.109375 0 L 90.421875 0 L 37.640625 -80.796875 L 37.640625 0 L 14.09375 0 L 14.09375 -123.421875 L 36.609375 -123.421875 L 89.5625 -42.453125 Z M 89.5625 -123.421875 "/></g></g></g></svg>