<svg xmlns="http://www.w3.org/2000/svg" xmlns:xlink="http://www.w3.org/1999/xlink" width="1133" zoomAndPan="magnify" viewBox="0 0 850.5 283.499996" height="377" preserveAspectRatio="xMidYMid meet" version="1.0"><defs><g/></defs><g fill="#bb9140" fill-opacity="1"><g transform="translate(29.213446, 187.07941)"><g><path d="M 69.625 -19.203125 L 28.03125 -19.203125 L 20.09375 0 L -1.15625 0 L 38.78125 -89.59375 L 59.25 -89.59375 L 99.3125 0 L 77.5625 0 Z M 63.09375 -34.9375 L 48.890625 -69.234375 L 34.6875 -34.9375 Z M 63.09375 -34.9375 "/></g></g></g><g fill="#bb9140" fill-opacity="1"><g transform="translate(127.248803, 187.07941)"><g><path d="M 96.75 -89.59375 L 57.984375 0 L 37.5 0 L -1.15625 -89.59375 L 21.25 -89.59375 L 48.5 -25.59375 L 76.15625 -89.59375 Z M 96.75 -89.59375 "/></g></g></g><g fill="#bb9140" fill-opacity="1"><g transform="translate(222.724492, 187.07941)"><g><path d="M 69.625 -19.203125 L 28.03125 -19.203125 L 20.09375 0 L -1.15625 0 L 38.78125 -89.59375 L 59.25 -89.59375 L 99.3125 0 L 77.5625 0 Z M 63.09375 -34.9375 L 48.890625 -69.234375 L 34.6875 -34.9375 Z M 63.09375 -34.9375 "/></g></g></g><g fill="#bb9140" fill-opacity="1"><g transform="translate(320.75986, 187.07941)"><g><path d="M 92.78125 -89.59375 L 92.78125 0 L 75.765625 0 L 31.09375 -54.390625 L 31.09375 0 L 10.625 0 L 10.625 -89.59375 L 27.765625 -89.59375 L 72.3125 -35.203125 L 72.3125 -89.59375 Z M 92.78125 -89.59375 "/></g></g></g><g fill="#bb9140" fill-opacity="1"><g transform="translate(424.170518, 187.07941)"><g><path d="M 71.15625 -46.203125 L 90.09375 -46.203125 L 90.09375 -9.859375 C 85.238281 -6.179688 79.609375 -3.363281 73.203125 -1.40625 C 66.804688 0.550781 60.363281 1.53125 53.875 1.53125 C 44.582031 1.53125 36.222656 -0.445312 28.796875 -4.40625 C 21.367188 -8.375 15.539062 -13.878906 11.3125 -20.921875 C 7.09375 -27.960938 4.984375 -35.921875 4.984375 -44.796875 C 4.984375 -53.671875 7.09375 -61.625 11.3125 -68.65625 C 15.539062 -75.695312 21.410156 -81.203125 28.921875 -85.171875 C 36.429688 -89.140625 44.878906 -91.125 54.265625 -91.125 C 62.117188 -91.125 69.242188 -89.800781 75.640625 -87.15625 C 82.035156 -84.507812 87.410156 -80.671875 91.765625 -75.640625 L 78.453125 -63.359375 C 72.054688 -70.097656 64.335938 -73.46875 55.296875 -73.46875 C 49.578125 -73.46875 44.5 -72.269531 40.0625 -69.875 C 35.625 -67.488281 32.164062 -64.117188 29.6875 -59.765625 C 27.21875 -55.410156 25.984375 -50.421875 25.984375 -44.796875 C 25.984375 -39.242188 27.21875 -34.289062 29.6875 -29.9375 C 32.164062 -25.59375 35.601562 -22.203125 40 -19.765625 C 44.394531 -17.335938 49.40625 -16.125 55.03125 -16.125 C 61 -16.125 66.375 -17.40625 71.15625 -19.96875 Z M 71.15625 -46.203125 "/></g></g></g><g fill="#bb9140" fill-opacity="1"><g transform="translate(522.845767, 187.07941)"><g><path d="M 69.625 -19.203125 L 28.03125 -19.203125 L 20.09375 0 L -1.15625 0 L 38.78125 -89.59375 L 59.25 -89.59375 L 99.3125 0 L 77.5625 0 Z M 63.09375 -34.9375 L 48.890625 -69.234375 L 34.6875 -34.9375 Z M 63.09375 -34.9375 "/></g></g></g><g fill="#bb9140" fill-opacity="1"><g transform="translate(620.881135, 187.07941)"><g><path d="M 67.703125 0 L 50.421875 -24.953125 L 31.359375 -24.953125 L 31.359375 0 L 10.625 0 L 10.625 -89.59375 L 49.40625 -89.59375 C 57.332031 -89.59375 64.21875 -88.269531 70.0625 -85.625 C 75.914062 -82.976562 80.421875 -79.222656 83.578125 -74.359375 C 86.734375 -69.492188 88.3125 -63.734375 88.3125 -57.078125 C 88.3125 -50.421875 86.707031 -44.679688 83.5 -39.859375 C 80.300781 -35.046875 75.757812 -31.359375 69.875 -28.796875 L 89.96875 0 Z M 67.3125 -57.078125 C 67.3125 -62.109375 65.691406 -65.96875 62.453125 -68.65625 C 59.210938 -71.34375 54.476562 -72.6875 48.25 -72.6875 L 31.359375 -72.6875 L 31.359375 -41.46875 L 48.25 -41.46875 C 54.476562 -41.46875 59.210938 -42.832031 62.453125 -45.5625 C 65.691406 -48.289062 67.3125 -52.128906 67.3125 -57.078125 Z M 67.3125 -57.078125 "/></g></g></g><g fill="#bb9140" fill-opacity="1"><g transform="translate(714.948992, 187.07941)"><g><path d="M 10.625 -89.59375 L 51.328125 -89.59375 C 61.046875 -89.59375 69.640625 -87.734375 77.109375 -84.015625 C 84.578125 -80.304688 90.378906 -75.082031 94.515625 -68.34375 C 98.648438 -61.601562 100.71875 -53.753906 100.71875 -44.796875 C 100.71875 -35.835938 98.648438 -27.988281 94.515625 -21.25 C 90.378906 -14.507812 84.578125 -9.28125 77.109375 -5.5625 C 69.640625 -1.851562 61.046875 0 51.328125 0 L 10.625 0 Z M 50.296875 -17.015625 C 59.253906 -17.015625 66.398438 -19.507812 71.734375 -24.5 C 77.066406 -29.5 79.734375 -36.265625 79.734375 -44.796875 C 79.734375 -53.328125 77.066406 -60.085938 71.734375 -65.078125 C 66.398438 -70.066406 59.253906 -72.5625 50.296875 -72.5625 L 31.359375 -72.5625 L 31.359375 -17.015625 Z M 50.296875 -17.015625 "/></g></g></g></svg>