<svg xmlns="http://www.w3.org/2000/svg" xmlns:xlink="http://www.w3.org/1999/xlink" width="1133" zoomAndPan="magnify" viewBox="0 0 850.5 283.499996" height="377" preserveAspectRatio="xMidYMid meet" version="1.0"><defs><clipPath id="1c420bd7e6"><path d="M 209.238281 18.527344 L 640.476562 18.527344 L 640.476562 264 L 209.238281 264 Z M 209.238281 18.527344 " clip-rule="nonzero"/></clipPath></defs><g clip-path="url(#1c420bd7e6)"><path fill="#0089cf" d="M 286.40625 105.6875 C 286.332031 113.058594 285.015625 120.640625 281.230469 127.0625 C 278.625 131.484375 274.425781 135.183594 269.320312 136.300781 C 264.457031 137.308594 259.117188 136.558594 254.96875 133.730469 C 250.585938 130.808594 247.714844 126.101562 246.023438 121.199219 C 243.527344 114.148438 243.222656 106.535156 243.757812 99.140625 C 244.433594 92.386719 246.183594 85.460938 250.382812 79.980469 C 251.113281 79.003906 251.9375 78.113281 252.851562 77.304688 C 253.765625 76.492188 254.753906 75.785156 255.8125 75.175781 C 256.867188 74.566406 257.976562 74.070312 259.136719 73.683594 C 260.296875 73.296875 261.480469 73.035156 262.691406 72.886719 C 266.875 72.355469 271.300781 73.121094 274.855469 75.464844 C 278.726562 77.976562 281.410156 81.960938 283.132812 86.179688 C 285.660156 92.339844 286.515625 99.0625 286.410156 105.6875 Z M 319.613281 91.554688 C 321.230469 100.085938 321.0625 108.917969 319.460938 117.449219 C 317.796875 126.082031 314.21875 134.441406 308.585938 141.246094 C 302.363281 148.886719 293.75 154.40625 284.402344 157.429688 C 275.863281 160.246094 266.722656 161.015625 257.792969 160.199219 C 247.128906 159.207031 236.597656 155.429688 228.214844 148.695312 C 219.894531 142.074219 213.996094 132.636719 211.296875 122.390625 C 210.105469 117.9375 209.421875 113.410156 209.246094 108.804688 C 209.238281 78.714844 209.246094 48.621094 209.246094 18.53125 L 243.570312 18.53125 C 243.570312 29.980469 243.5625 41.425781 243.570312 52.871094 C 249.085938 51.011719 254.742188 49.855469 260.542969 49.410156 C 266.34375 48.960938 272.109375 49.230469 277.84375 50.222656 C 288.167969 52.050781 298.101562 56.761719 305.519531 64.246094 C 312.960938 71.5625 317.722656 81.355469 319.613281 91.550781 Z M 432.859375 18.527344 C 443.914062 18.515625 454.960938 18.527344 466.007812 18.527344 C 466.042969 44.046875 465.976562 69.570312 466.050781 95.097656 C 466.65625 94.710938 467.011719 94.0625 467.398438 93.46875 C 476.605469 79.511719 485.875 65.585938 495.058594 51.601562 C 509.433594 51.550781 523.8125 51.578125 538.191406 51.589844 C 524.222656 68.269531 510.210938 84.914062 496.234375 101.578125 C 495.933594 101.867188 495.738281 102.300781 496.140625 102.597656 C 511.675781 121.046875 527.328125 139.402344 542.84375 157.863281 C 528.78125 157.890625 514.714844 157.867188 500.640625 157.875 C 500.457031 157.910156 500.277344 157.886719 500.105469 157.808594 C 499.933594 157.734375 499.796875 157.613281 499.699219 157.453125 C 488.476562 141.167969 477.316406 124.84375 466.039062 108.597656 C 465.957031 124.996094 466.082031 141.394531 465.976562 157.785156 C 461.339844 158 456.644531 157.816406 451.980469 157.875 L 432.867188 157.875 C 432.851562 111.425781 432.867188 64.976562 432.859375 18.527344 Z M 425.898438 115.480469 C 402.992188 115.480469 380.085938 115.449219 357.183594 115.492188 C 357.605469 120.316406 359.828125 124.96875 363.503906 128.15625 C 368.972656 133.039062 376.398438 134.945312 383.539062 135.53125 C 394.871094 136.085938 405.949219 134.679688 416.777344 131.308594 C 418.21875 138.789062 419.71875 146.257812 421.140625 153.738281 C 408.570312 158.75 394.90625 160.28125 381.464844 160.28125 C 373.367188 160.109375 365.207031 159.042969 357.578125 156.207031 C 352.082031 154.199219 346.882812 151.296875 342.433594 147.472656 C 337.511719 143.25 333.675781 138.207031 330.929688 132.335938 C 327.132812 124.269531 325.542969 115.277344 325.582031 106.394531 C 325.480469 97.503906 327.164062 88.96875 330.625 80.78125 C 334.410156 71.855469 340.492188 63.792969 348.523438 58.257812 C 355.96875 53.035156 364.917969 50.160156 373.957031 49.4375 C 381.417969 48.796875 389.058594 49.386719 396.214844 51.699219 C 402.128906 53.65625 407.664062 56.882812 412.085938 61.289062 C 416.273438 65.351562 419.496094 70.347656 421.824219 75.683594 C 427.15625 88.148438 428.050781 102.195312 425.898438 115.480469 Z M 357.03125 92.746094 L 396.230469 92.75 C 396.1875 87.039062 394.683594 81.039062 390.824219 76.679688 C 387.65625 73.0625 382.789062 71.265625 378.046875 71.261719 C 373.347656 71.066406 368.535156 72.601562 365.03125 75.785156 C 360.226562 80.070312 357.660156 86.429688 357.027344 92.746094 Z M 640.113281 96.730469 C 641.4375 110.375 639.242188 124.804688 631.773438 136.515625 C 625.445312 146.554688 615.285156 153.914062 604.015625 157.472656 C 595.554688 160.246094 586.511719 160.988281 577.660156 160.210938 C 568.480469 159.355469 559.40625 156.480469 551.6875 151.382812 C 547.976562 148.941406 544.660156 146.046875 541.742188 142.699219 C 538.824219 139.351562 536.410156 135.671875 534.503906 131.660156 C 528.863281 119.789062 527.804688 106.097656 530.03125 93.25 C 531.855469 82.699219 536.578125 72.484375 544.242188 64.890625 C 551.140625 57.84375 560.269531 53.199219 569.839844 50.984375 C 573.390625 50.128906 577.03125 49.671875 580.675781 49.367188 C 589.632812 48.777344 598.785156 49.699219 607.234375 52.828125 C 617.667969 56.589844 626.800781 63.90625 632.519531 73.425781 C 636.804688 80.476562 639.3125 88.539062 640.109375 96.734375 Z M 605.839844 111.558594 C 606.683594 103.449219 606.160156 95.058594 603.371094 87.347656 C 601.691406 82.824219 599.039062 78.449219 594.980469 75.6875 C 591.410156 73.203125 586.886719 72.34375 582.613281 72.867188 C 580.699219 73.074219 578.867188 73.574219 577.113281 74.375 C 575.363281 75.171875 573.785156 76.226562 572.375 77.535156 C 568.703125 80.941406 566.488281 85.605469 565.132812 90.355469 C 563.351562 96.558594 563.082031 103.082031 563.453125 109.480469 C 563.875 114.757812 564.96875 120.042969 567.292969 124.824219 C 569.238281 128.808594 572.203125 132.4375 576.152344 134.574219 C 579.847656 136.621094 584.257812 137.09375 588.394531 136.441406 C 592.988281 135.625 597.019531 132.730469 599.710938 128.976562 C 603.394531 123.917969 605.082031 117.699219 605.835938 111.558594 Z M 307.617188 216.1875 C 414.207031 201.203125 520.816406 186.296875 627.414062 171.28125 C 627.492188 182.441406 627.457031 193.597656 627.425781 204.75 C 597.015625 208.9375 566.625 213.265625 536.21875 217.5 C 427.230469 232.765625 318.246094 248.089844 209.253906 263.320312 C 209.246094 252.191406 209.210938 241.066406 209.265625 229.9375 C 242.058594 225.433594 274.828125 220.75 307.617188 216.1875 Z M 307.617188 216.1875 " fill-opacity="1" fill-rule="evenodd"/></g></svg>