<svg xmlns="http://www.w3.org/2000/svg" xmlns:xlink="http://www.w3.org/1999/xlink" width="1133" zoomAndPan="magnify" viewBox="0 0 850.5 283.499996" height="377" preserveAspectRatio="xMidYMid meet" version="1.0"><defs><g/><clipPath id="9fe682e971"><path d="M 39.511719 66.371094 L 180.261719 66.371094 L 180.261719 207.121094 L 39.511719 207.121094 Z M 39.511719 66.371094 " clip-rule="nonzero"/></clipPath></defs><path fill="#000000" d="M 85.488281 182.832031 C 84.6875 182.832031 83.902344 182.503906 83.332031 181.886719 C 66.390625 171.246094 57.105469 155.125 57.105469 136.535156 C 57.105469 111.621094 73.519531 97.640625 83.300781 91.53125 C 84.117188 90.632812 85.402344 90.367188 86.539062 90.8125 C 87.664062 91.25 88.421875 92.386719 88.421875 93.59375 L 88.421875 124.507812 C 88.421875 126.125 87.109375 127.4375 85.488281 127.4375 C 83.871094 127.4375 82.558594 126.125 82.558594 124.507812 L 82.558594 99.128906 C 73.929688 105.546875 62.96875 117.453125 62.96875 136.535156 C 62.96875 155.800781 73.9375 167.839844 82.558594 174.320312 L 82.558594 149.371094 C 82.558594 147.753906 83.871094 146.441406 85.488281 146.441406 C 87.109375 146.441406 88.421875 147.753906 88.421875 149.371094 L 88.421875 179.898438 C 88.421875 181.105469 87.683594 182.191406 86.558594 182.632812 C 86.210938 182.765625 85.847656 182.832031 85.488281 182.832031 Z M 85.488281 182.832031 " fill-opacity="1" fill-rule="nonzero"/><path fill="#000000" d="M 133.433594 183.664062 C 133.023438 183.664062 132.605469 183.574219 132.214844 183.398438 C 131.167969 182.917969 130.5 181.878906 130.5 180.730469 L 130.5 149.371094 C 130.5 147.753906 131.816406 146.441406 133.433594 146.441406 C 135.050781 146.441406 136.367188 147.753906 136.367188 149.371094 L 136.367188 174.953125 C 140.957031 171.613281 147.378906 166.304688 152.488281 156.820312 C 155.292969 150.921875 156.804688 143.855469 156.804688 136.535156 C 156.804688 115.125 143.882812 103.992188 136.367188 98.539062 L 136.367188 124.441406 C 136.367188 126.0625 135.050781 127.375 133.433594 127.375 C 131.816406 127.375 130.5 126.0625 130.5 124.441406 L 130.5 92.761719 C 130.5 91.558594 131.234375 90.480469 132.347656 90.039062 C 133.464844 89.605469 134.742188 89.875 135.5625 90.742188 C 135.886719 91.058594 136.570312 91.507812 137.480469 92.144531 C 144.371094 96.949219 162.667969 109.726562 162.667969 136.535156 C 162.667969 144.722656 160.957031 152.652344 157.71875 159.472656 C 151.109375 171.757812 142.429688 177.875 137.773438 181.160156 C 136.757812 181.875 135.925781 182.457031 135.355469 182.949219 C 134.8125 183.417969 134.125 183.664062 133.433594 183.664062 Z M 133.433594 183.664062 " fill-opacity="1" fill-rule="nonzero"/><path fill="#000000" d="M 133.433594 154.480469 L 85.488281 154.480469 C 83.871094 154.480469 82.558594 153.167969 82.558594 151.546875 L 82.558594 124.449219 C 82.558594 122.828125 83.871094 121.515625 85.488281 121.515625 L 133.433594 121.515625 C 135.050781 121.515625 136.367188 122.828125 136.367188 124.449219 L 136.367188 151.546875 C 136.367188 153.167969 135.058594 154.480469 133.433594 154.480469 Z M 88.421875 148.617188 L 130.5 148.617188 L 130.5 127.378906 L 88.421875 127.378906 Z M 88.421875 148.617188 " fill-opacity="1" fill-rule="nonzero"/><g clip-path="url(#9fe682e971)"><path fill="#000000" d="M 110.105469 207.121094 C 71.175781 207.121094 39.511719 175.457031 39.511719 136.527344 C 39.511719 97.847656 71.175781 66.371094 110.105469 66.371094 C 148.789062 66.371094 180.261719 97.847656 180.261719 136.527344 C 180.261719 175.457031 148.789062 207.121094 110.105469 207.121094 Z M 110.105469 72.234375 C 75.015625 72.234375 45.375 101.679688 45.375 136.527344 C 45.375 172.222656 74.410156 201.257812 110.105469 201.257812 C 145.554688 201.257812 174.398438 172.222656 174.398438 136.527344 C 174.398438 101.078125 145.554688 72.234375 110.105469 72.234375 Z M 110.105469 72.234375 " fill-opacity="1" fill-rule="nonzero"/></g><g fill="#ff0000" fill-opacity="1"><g transform="translate(202.432282, 202.70279)"><g><path d="M 99.328125 -60.5625 C 105.984375 -58.457031 111.195312 -54.9375 114.96875 -50 C 118.738281 -45.0625 120.625 -38.988281 120.625 -31.78125 C 120.625 -21.570312 116.65625 -13.722656 108.71875 -8.234375 C 100.789062 -2.742188 89.226562 0 74.03125 0 L 13.8125 0 L 13.8125 -116.46875 L 70.703125 -116.46875 C 84.898438 -116.46875 95.796875 -113.75 103.390625 -108.3125 C 110.992188 -102.875 114.796875 -95.5 114.796875 -86.1875 C 114.796875 -80.53125 113.4375 -75.484375 110.71875 -71.046875 C 108 -66.609375 104.203125 -63.113281 99.328125 -60.5625 Z M 40.59375 -96.171875 L 40.59375 -68.71875 L 67.375 -68.71875 C 74.03125 -68.71875 79.078125 -69.878906 82.515625 -72.203125 C 85.953125 -74.535156 87.671875 -77.972656 87.671875 -82.515625 C 87.671875 -87.066406 85.953125 -90.476562 82.515625 -92.75 C 79.078125 -95.03125 74.03125 -96.171875 67.375 -96.171875 Z M 72.046875 -20.296875 C 79.140625 -20.296875 84.488281 -21.457031 88.09375 -23.78125 C 91.695312 -26.113281 93.5 -29.722656 93.5 -34.609375 C 93.5 -44.253906 86.347656 -49.078125 72.046875 -49.078125 L 40.59375 -49.078125 L 40.59375 -20.296875 Z M 72.046875 -20.296875 "/></g></g></g><g fill="#ff0000" fill-opacity="1"><g transform="translate(318.558172, 202.70279)"><g><path d="M 70.203125 2 C 58.117188 2 47.222656 -0.601562 37.515625 -5.8125 C 27.804688 -11.03125 20.207031 -18.210938 14.71875 -27.359375 C 9.226562 -36.515625 6.484375 -46.804688 6.484375 -58.234375 C 6.484375 -69.660156 9.226562 -79.945312 14.71875 -89.09375 C 20.207031 -98.238281 27.804688 -105.414062 37.515625 -110.625 C 47.222656 -115.84375 58.117188 -118.453125 70.203125 -118.453125 C 82.296875 -118.453125 93.164062 -115.84375 102.8125 -110.625 C 112.46875 -105.414062 120.066406 -98.238281 125.609375 -89.09375 C 131.160156 -79.945312 133.9375 -69.660156 133.9375 -58.234375 C 133.9375 -46.804688 131.160156 -36.515625 125.609375 -27.359375 C 120.066406 -18.210938 112.46875 -11.03125 102.8125 -5.8125 C 93.164062 -0.601562 82.296875 2 70.203125 2 Z M 70.203125 -20.96875 C 77.085938 -20.96875 83.300781 -22.546875 88.84375 -25.703125 C 94.382812 -28.867188 98.734375 -33.28125 101.890625 -38.9375 C 105.054688 -44.59375 106.640625 -51.023438 106.640625 -58.234375 C 106.640625 -65.441406 105.054688 -71.875 101.890625 -77.53125 C 98.734375 -83.1875 94.382812 -87.59375 88.84375 -90.75 C 83.300781 -93.914062 77.085938 -95.5 70.203125 -95.5 C 63.328125 -95.5 57.113281 -93.914062 51.5625 -90.75 C 46.019531 -87.59375 41.671875 -83.1875 38.515625 -77.53125 C 35.359375 -71.875 33.78125 -65.441406 33.78125 -58.234375 C 33.78125 -51.023438 35.359375 -44.59375 38.515625 -38.9375 C 41.671875 -33.28125 46.019531 -28.867188 51.5625 -25.703125 C 57.113281 -22.546875 63.328125 -20.96875 70.203125 -20.96875 Z M 70.203125 -20.96875 "/></g></g></g><g fill="#ff0000" fill-opacity="1"><g transform="translate(447.827352, 202.70279)"><g><path d="M 52.078125 2 C 42.867188 2 33.96875 0.753906 25.375 -1.734375 C 16.78125 -4.234375 9.875 -7.484375 4.65625 -11.484375 L 13.8125 -31.78125 C 18.800781 -28.113281 24.734375 -25.171875 31.609375 -22.953125 C 38.484375 -20.734375 45.359375 -19.625 52.234375 -19.625 C 59.890625 -19.625 65.546875 -20.757812 69.203125 -23.03125 C 72.867188 -25.3125 74.703125 -28.335938 74.703125 -32.109375 C 74.703125 -34.878906 73.617188 -37.179688 71.453125 -39.015625 C 69.296875 -40.847656 66.523438 -42.316406 63.140625 -43.421875 C 59.753906 -44.535156 55.175781 -45.753906 49.40625 -47.078125 C 40.539062 -49.191406 33.28125 -51.300781 27.625 -53.40625 C 21.96875 -55.507812 17.113281 -58.890625 13.0625 -63.546875 C 9.007812 -68.210938 6.984375 -74.425781 6.984375 -82.1875 C 6.984375 -88.957031 8.8125 -95.085938 12.46875 -100.578125 C 16.132812 -106.066406 21.65625 -110.414062 29.03125 -113.625 C 36.40625 -116.84375 45.414062 -118.453125 56.0625 -118.453125 C 63.5 -118.453125 70.765625 -117.566406 77.859375 -115.796875 C 84.960938 -114.023438 91.175781 -111.472656 96.5 -108.140625 L 88.171875 -87.671875 C 77.421875 -93.773438 66.664062 -96.828125 55.90625 -96.828125 C 48.363281 -96.828125 42.789062 -95.609375 39.1875 -93.171875 C 35.582031 -90.734375 33.78125 -87.515625 33.78125 -83.515625 C 33.78125 -79.523438 35.859375 -76.554688 40.015625 -74.609375 C 44.171875 -72.671875 50.519531 -70.757812 59.0625 -68.875 C 67.9375 -66.769531 75.203125 -64.660156 80.859375 -62.546875 C 86.515625 -60.441406 91.363281 -57.113281 95.40625 -52.5625 C 99.457031 -48.019531 101.484375 -41.867188 101.484375 -34.109375 C 101.484375 -27.453125 99.625 -21.378906 95.90625 -15.890625 C 92.195312 -10.398438 86.625 -6.046875 79.1875 -2.828125 C 71.757812 0.390625 62.722656 2 52.078125 2 Z M 52.078125 2 "/></g></g></g><g fill="#ff0000" fill-opacity="1"><g transform="translate(542.824156, 202.70279)"><g><path d="M 69.546875 2 C 57.679688 2 46.945312 -0.578125 37.34375 -5.734375 C 27.75 -10.890625 20.207031 -18.039062 14.71875 -27.1875 C 9.226562 -36.34375 6.484375 -46.691406 6.484375 -58.234375 C 6.484375 -69.765625 9.226562 -80.101562 14.71875 -89.25 C 20.207031 -98.40625 27.75 -105.5625 37.34375 -110.71875 C 46.945312 -115.875 57.738281 -118.453125 69.71875 -118.453125 C 79.800781 -118.453125 88.921875 -116.675781 97.078125 -113.125 C 105.234375 -109.582031 112.082031 -104.484375 117.625 -97.828125 L 100.328125 -81.859375 C 92.453125 -90.953125 82.691406 -95.5 71.046875 -95.5 C 63.835938 -95.5 57.398438 -93.914062 51.734375 -90.75 C 46.078125 -87.59375 41.671875 -83.1875 38.515625 -77.53125 C 35.359375 -71.875 33.78125 -65.441406 33.78125 -58.234375 C 33.78125 -51.023438 35.359375 -44.59375 38.515625 -38.9375 C 41.671875 -33.28125 46.078125 -28.867188 51.734375 -25.703125 C 57.398438 -22.546875 63.835938 -20.96875 71.046875 -20.96875 C 82.691406 -20.96875 92.453125 -25.566406 100.328125 -34.765625 L 117.625 -18.796875 C 112.082031 -12.035156 105.207031 -6.878906 97 -3.328125 C 88.789062 0.222656 79.640625 2 69.546875 2 Z M 69.546875 2 "/></g></g></g><g fill="#ff0000" fill-opacity="1"><g transform="translate(653.626214, 202.70279)"><g><path d="M 120.625 -116.46875 L 120.625 0 L 93.671875 0 L 93.671875 -47.75 L 40.765625 -47.75 L 40.765625 0 L 13.8125 0 L 13.8125 -116.46875 L 40.765625 -116.46875 L 40.765625 -70.546875 L 93.671875 -70.546875 L 93.671875 -116.46875 Z M 120.625 -116.46875 "/></g></g></g></svg>