<svg xmlns="http://www.w3.org/2000/svg" xmlns:xlink="http://www.w3.org/1999/xlink" width="1133" zoomAndPan="magnify" viewBox="0 0 850.5 283.499996" height="377" preserveAspectRatio="xMidYMid meet" version="1.0"><defs><g/></defs><g fill="#8c756a" fill-opacity="1"><g transform="translate(176.579705, 205.065851)"><g><path d="M 106.171875 -64.734375 C 113.285156 -62.484375 118.859375 -58.71875 122.890625 -53.4375 C 126.921875 -48.164062 128.9375 -41.675781 128.9375 -33.96875 C 128.9375 -23.0625 124.695312 -14.671875 116.21875 -8.796875 C 107.738281 -2.929688 95.378906 0 79.140625 0 L 14.765625 0 L 14.765625 -124.484375 L 75.578125 -124.484375 C 90.753906 -124.484375 102.40625 -121.578125 110.53125 -115.765625 C 118.65625 -109.960938 122.71875 -102.082031 122.71875 -92.125 C 122.71875 -86.070312 121.265625 -80.675781 118.359375 -75.9375 C 115.453125 -71.195312 111.390625 -67.460938 106.171875 -64.734375 Z M 43.390625 -102.796875 L 43.390625 -73.453125 L 72.03125 -73.453125 C 79.144531 -73.453125 84.535156 -74.695312 88.203125 -77.1875 C 91.878906 -79.675781 93.71875 -83.347656 93.71875 -88.203125 C 93.71875 -93.066406 91.878906 -96.710938 88.203125 -99.140625 C 84.535156 -101.578125 79.144531 -102.796875 72.03125 -102.796875 Z M 77 -21.703125 C 84.59375 -21.703125 90.316406 -22.945312 94.171875 -25.4375 C 98.023438 -27.925781 99.953125 -31.773438 99.953125 -36.984375 C 99.953125 -47.304688 92.300781 -52.46875 77 -52.46875 L 43.390625 -52.46875 L 43.390625 -21.703125 Z M 77 -21.703125 "/></g></g></g><g fill="#8c756a" fill-opacity="1"><g transform="translate(312.632289, 205.065851)"><g><path d="M 39.296875 -83.046875 C 42.617188 -87.671875 47.09375 -91.171875 52.71875 -93.546875 C 58.351562 -95.921875 64.847656 -97.109375 72.203125 -97.109375 L 72.203125 -71.5 C 69.117188 -71.726562 67.046875 -71.84375 65.984375 -71.84375 C 58.035156 -71.84375 51.804688 -69.617188 47.296875 -65.171875 C 42.796875 -60.734375 40.546875 -54.066406 40.546875 -45.171875 L 40.546875 0 L 12.8125 0 L 12.8125 -95.6875 L 39.296875 -95.6875 Z M 39.296875 -83.046875 "/></g></g></g><g fill="#8c756a" fill-opacity="1"><g transform="translate(389.284137, 205.065851)"><g><path d="M 106.53125 -47.484375 C 106.53125 -47.128906 106.351562 -44.640625 106 -40.015625 L 33.609375 -40.015625 C 34.910156 -34.085938 37.992188 -29.40625 42.859375 -25.96875 C 47.722656 -22.53125 53.769531 -20.8125 61 -20.8125 C 65.976562 -20.8125 70.394531 -21.550781 74.25 -23.03125 C 78.101562 -24.507812 81.691406 -26.851562 85.015625 -30.0625 L 99.765625 -14.046875 C 90.753906 -3.734375 77.59375 1.421875 60.28125 1.421875 C 49.5 1.421875 39.957031 -0.679688 31.65625 -4.890625 C 23.351562 -9.097656 16.945312 -14.9375 12.4375 -22.40625 C 7.9375 -29.875 5.6875 -38.351562 5.6875 -47.84375 C 5.6875 -57.207031 7.910156 -65.648438 12.359375 -73.171875 C 16.804688 -80.703125 22.910156 -86.570312 30.671875 -90.78125 C 38.441406 -95 47.128906 -97.109375 56.734375 -97.109375 C 66.097656 -97.109375 74.570312 -95.09375 82.15625 -91.0625 C 89.75 -87.03125 95.707031 -81.25 100.03125 -73.71875 C 104.363281 -66.1875 106.53125 -57.441406 106.53125 -47.484375 Z M 56.90625 -76.109375 C 50.625 -76.109375 45.347656 -74.332031 41.078125 -70.78125 C 36.804688 -67.226562 34.195312 -62.367188 33.25 -56.203125 L 80.390625 -56.203125 C 79.441406 -62.242188 76.832031 -67.070312 72.5625 -70.6875 C 68.289062 -74.300781 63.070312 -76.109375 56.90625 -76.109375 Z M 56.90625 -76.109375 "/></g></g></g><g fill="#8c756a" fill-opacity="1"><g transform="translate(501.5053, 205.065851)"><g><path d="M 45 1.421875 C 37.050781 1.421875 29.28125 0.441406 21.6875 -1.515625 C 14.101562 -3.472656 8.0625 -5.929688 3.5625 -8.890625 L 12.8125 -28.8125 C 17.070312 -26.082031 22.222656 -23.859375 28.265625 -22.140625 C 34.316406 -20.421875 40.25 -19.5625 46.0625 -19.5625 C 57.800781 -19.5625 63.671875 -22.46875 63.671875 -28.28125 C 63.671875 -31.007812 62.066406 -32.960938 58.859375 -34.140625 C 55.660156 -35.328125 50.742188 -36.335938 44.109375 -37.171875 C 36.285156 -38.359375 29.820312 -39.722656 24.71875 -41.265625 C 19.625 -42.804688 15.207031 -45.53125 11.46875 -49.4375 C 7.738281 -53.351562 5.875 -58.925781 5.875 -66.15625 C 5.875 -72.207031 7.617188 -77.570312 11.109375 -82.25 C 14.609375 -86.9375 19.707031 -90.582031 26.40625 -93.1875 C 33.101562 -95.800781 41.019531 -97.109375 50.15625 -97.109375 C 56.90625 -97.109375 63.628906 -96.363281 70.328125 -94.875 C 77.035156 -93.394531 82.582031 -91.351562 86.96875 -88.75 L 77.71875 -69 C 69.300781 -73.738281 60.113281 -76.109375 50.15625 -76.109375 C 44.226562 -76.109375 39.78125 -75.28125 36.8125 -73.625 C 33.851562 -71.96875 32.375 -69.832031 32.375 -67.21875 C 32.375 -64.257812 33.972656 -62.1875 37.171875 -61 C 40.367188 -59.8125 45.46875 -58.6875 52.46875 -57.625 C 60.289062 -56.320312 66.691406 -54.925781 71.671875 -53.4375 C 76.648438 -51.957031 80.976562 -49.257812 84.65625 -45.34375 C 88.332031 -41.4375 90.171875 -35.984375 90.171875 -28.984375 C 90.171875 -23.054688 88.390625 -17.78125 84.828125 -13.15625 C 81.273438 -8.53125 76.085938 -4.941406 69.265625 -2.390625 C 62.453125 0.148438 54.363281 1.421875 45 1.421875 Z M 45 1.421875 "/></g></g></g><g fill="#8c756a" fill-opacity="1"><g transform="translate(595.941782, 205.065851)"><g><path d="M 74.515625 -4.625 C 71.785156 -2.601562 68.4375 -1.085938 64.46875 -0.078125 C 60.5 0.921875 56.320312 1.421875 51.9375 1.421875 C 40.550781 1.421875 31.742188 -1.476562 25.515625 -7.28125 C 19.296875 -13.09375 16.1875 -21.632812 16.1875 -32.90625 L 16.1875 -72.203125 L 1.421875 -72.203125 L 1.421875 -93.546875 L 16.1875 -93.546875 L 16.1875 -116.84375 L 43.921875 -116.84375 L 43.921875 -93.546875 L 67.765625 -93.546875 L 67.765625 -72.203125 L 43.921875 -72.203125 L 43.921875 -33.25 C 43.921875 -29.21875 44.957031 -26.101562 47.03125 -23.90625 C 49.113281 -21.71875 52.050781 -20.625 55.84375 -20.625 C 60.226562 -20.625 63.960938 -21.8125 67.046875 -24.1875 Z M 74.515625 -4.625 "/></g></g></g></svg>