<svg xmlns="http://www.w3.org/2000/svg" xmlns:xlink="http://www.w3.org/1999/xlink" width="1133" zoomAndPan="magnify" viewBox="0 0 850.5 283.499996" height="377" preserveAspectRatio="xMidYMid meet" version="1.0"><defs><g/></defs><g fill="#a83b3b" fill-opacity="1"><g transform="translate(116.63855, 205.065851)"><g><path d="M 43.578125 -101.375 L 43.578125 -68.46875 L 101.1875 -68.46875 L 101.1875 -45.34375 L 43.578125 -45.34375 L 43.578125 0 L 14.765625 0 L 14.765625 -124.484375 L 108.84375 -124.484375 L 108.84375 -101.375 Z M 43.578125 -101.375 "/></g></g></g><g fill="#a83b3b" fill-opacity="1"><g transform="translate(230.282473, 205.065851)"><g><path d="M 106.53125 -47.484375 C 106.53125 -47.128906 106.351562 -44.640625 106 -40.015625 L 33.609375 -40.015625 C 34.910156 -34.085938 37.992188 -29.40625 42.859375 -25.96875 C 47.722656 -22.53125 53.769531 -20.8125 61 -20.8125 C 65.976562 -20.8125 70.394531 -21.550781 74.25 -23.03125 C 78.101562 -24.507812 81.691406 -26.851562 85.015625 -30.0625 L 99.765625 -14.046875 C 90.753906 -3.734375 77.59375 1.421875 60.28125 1.421875 C 49.5 1.421875 39.957031 -0.679688 31.65625 -4.890625 C 23.351562 -9.097656 16.945312 -14.9375 12.4375 -22.40625 C 7.9375 -29.875 5.6875 -38.351562 5.6875 -47.84375 C 5.6875 -57.207031 7.910156 -65.648438 12.359375 -73.171875 C 16.804688 -80.703125 22.910156 -86.570312 30.671875 -90.78125 C 38.441406 -95 47.128906 -97.109375 56.734375 -97.109375 C 66.097656 -97.109375 74.570312 -95.09375 82.15625 -91.0625 C 89.75 -87.03125 95.707031 -81.25 100.03125 -73.71875 C 104.363281 -66.1875 106.53125 -57.441406 106.53125 -47.484375 Z M 56.90625 -76.109375 C 50.625 -76.109375 45.347656 -74.332031 41.078125 -70.78125 C 36.804688 -67.226562 34.195312 -62.367188 33.25 -56.203125 L 80.390625 -56.203125 C 79.441406 -62.242188 76.832031 -67.070312 72.5625 -70.6875 C 68.289062 -74.300781 63.070312 -76.109375 56.90625 -76.109375 Z M 56.90625 -76.109375 "/></g></g></g><g fill="#a83b3b" fill-opacity="1"><g transform="translate(342.503614, 205.065851)"><g><path d="M 135.34375 -97.109375 C 147.3125 -97.109375 156.820312 -93.578125 163.875 -86.515625 C 170.9375 -79.460938 174.46875 -68.882812 174.46875 -54.78125 L 174.46875 0 L 146.71875 0 L 146.71875 -50.5 C 146.71875 -58.09375 145.144531 -63.753906 142 -67.484375 C 138.863281 -71.222656 134.390625 -73.09375 128.578125 -73.09375 C 122.054688 -73.09375 116.898438 -70.988281 113.109375 -66.78125 C 109.316406 -62.570312 107.421875 -56.316406 107.421875 -48.015625 L 107.421875 0 L 79.671875 0 L 79.671875 -50.5 C 79.671875 -65.5625 73.625 -73.09375 61.53125 -73.09375 C 55.132812 -73.09375 50.035156 -70.988281 46.234375 -66.78125 C 42.441406 -62.570312 40.546875 -56.316406 40.546875 -48.015625 L 40.546875 0 L 12.8125 0 L 12.8125 -95.6875 L 39.296875 -95.6875 L 39.296875 -84.65625 C 42.859375 -88.6875 47.21875 -91.769531 52.375 -93.90625 C 57.53125 -96.039062 63.191406 -97.109375 69.359375 -97.109375 C 76.117188 -97.109375 82.222656 -95.769531 87.671875 -93.09375 C 93.128906 -90.425781 97.519531 -86.546875 100.84375 -81.453125 C 104.75 -86.429688 109.695312 -90.285156 115.6875 -93.015625 C 121.675781 -95.742188 128.226562 -97.109375 135.34375 -97.109375 Z M 135.34375 -97.109375 "/></g></g></g><g fill="#a83b3b" fill-opacity="1"><g transform="translate(529.064604, 205.065851)"><g><path d="M 51.390625 -97.109375 C 66.210938 -97.109375 77.59375 -93.578125 85.53125 -86.515625 C 93.476562 -79.460938 97.453125 -68.820312 97.453125 -54.59375 L 97.453125 0 L 71.5 0 L 71.5 -11.921875 C 66.28125 -3.023438 56.554688 1.421875 42.328125 1.421875 C 34.972656 1.421875 28.597656 0.175781 23.203125 -2.3125 C 17.804688 -4.800781 13.6875 -8.238281 10.84375 -12.625 C 8 -17.007812 6.578125 -21.988281 6.578125 -27.5625 C 6.578125 -36.457031 9.925781 -43.453125 16.625 -48.546875 C 23.320312 -53.648438 33.664062 -56.203125 47.65625 -56.203125 L 69.71875 -56.203125 C 69.71875 -62.242188 67.878906 -66.894531 64.203125 -70.15625 C 60.523438 -73.414062 55.007812 -75.046875 47.65625 -75.046875 C 42.5625 -75.046875 37.550781 -74.242188 32.625 -72.640625 C 27.707031 -71.046875 23.53125 -68.882812 20.09375 -66.15625 L 10.140625 -85.546875 C 15.359375 -89.222656 21.613281 -92.066406 28.90625 -94.078125 C 36.195312 -96.097656 43.691406 -97.109375 51.390625 -97.109375 Z M 49.265625 -17.25 C 54.003906 -17.25 58.210938 -18.34375 61.890625 -20.53125 C 65.566406 -22.726562 68.175781 -25.960938 69.71875 -30.234375 L 69.71875 -40.015625 L 50.6875 -40.015625 C 39.300781 -40.015625 33.609375 -36.28125 33.609375 -28.8125 C 33.609375 -25.25 35 -22.429688 37.78125 -20.359375 C 40.570312 -18.285156 44.398438 -17.25 49.265625 -17.25 Z M 49.265625 -17.25 "/></g></g></g><g fill="#a83b3b" fill-opacity="1"><g transform="translate(638.795919, 205.065851)"><g><path d="M 45 1.421875 C 37.050781 1.421875 29.28125 0.441406 21.6875 -1.515625 C 14.101562 -3.472656 8.0625 -5.929688 3.5625 -8.890625 L 12.8125 -28.8125 C 17.070312 -26.082031 22.222656 -23.859375 28.265625 -22.140625 C 34.316406 -20.421875 40.25 -19.5625 46.0625 -19.5625 C 57.800781 -19.5625 63.671875 -22.46875 63.671875 -28.28125 C 63.671875 -31.007812 62.066406 -32.960938 58.859375 -34.140625 C 55.660156 -35.328125 50.742188 -36.335938 44.109375 -37.171875 C 36.285156 -38.359375 29.820312 -39.722656 24.71875 -41.265625 C 19.625 -42.804688 15.207031 -45.53125 11.46875 -49.4375 C 7.738281 -53.351562 5.875 -58.925781 5.875 -66.15625 C 5.875 -72.207031 7.617188 -77.570312 11.109375 -82.25 C 14.609375 -86.9375 19.707031 -90.582031 26.40625 -93.1875 C 33.101562 -95.800781 41.019531 -97.109375 50.15625 -97.109375 C 56.90625 -97.109375 63.628906 -96.363281 70.328125 -94.875 C 77.035156 -93.394531 82.582031 -91.351562 86.96875 -88.75 L 77.71875 -69 C 69.300781 -73.738281 60.113281 -76.109375 50.15625 -76.109375 C 44.226562 -76.109375 39.78125 -75.28125 36.8125 -73.625 C 33.851562 -71.96875 32.375 -69.832031 32.375 -67.21875 C 32.375 -64.257812 33.972656 -62.1875 37.171875 -61 C 40.367188 -59.8125 45.46875 -58.6875 52.46875 -57.625 C 60.289062 -56.320312 66.691406 -54.925781 71.671875 -53.4375 C 76.648438 -51.957031 80.976562 -49.257812 84.65625 -45.34375 C 88.332031 -41.4375 90.171875 -35.984375 90.171875 -28.984375 C 90.171875 -23.054688 88.390625 -17.78125 84.828125 -13.15625 C 81.273438 -8.53125 76.085938 -4.941406 69.265625 -2.390625 C 62.453125 0.148438 54.363281 1.421875 45 1.421875 Z M 45 1.421875 "/></g></g></g></svg>