<svg xmlns="http://www.w3.org/2000/svg" xmlns:xlink="http://www.w3.org/1999/xlink" width="1133" zoomAndPan="magnify" viewBox="0 0 850.5 283.499996" height="377" preserveAspectRatio="xMidYMid meet" version="1.0"><defs><clipPath id="1d77fe8e8f"><path d="M 22.882812 33.652344 L 163 33.652344 L 163 249 L 22.882812 249 Z M 22.882812 33.652344 " clip-rule="nonzero"/></clipPath><clipPath id="1883fb7cf3"><path d="M 639 94 L 792 94 L 792 249.273438 L 639 249.273438 Z M 639 94 " clip-rule="nonzero"/></clipPath><clipPath id="f9a923220c"><path d="M 182 94 L 333 94 L 333 249.273438 L 182 249.273438 Z M 182 94 " clip-rule="nonzero"/></clipPath><clipPath id="1fe9bfaaf1"><path d="M 496 102 L 631 102 L 631 249.273438 L 496 249.273438 Z M 496 102 " clip-rule="nonzero"/></clipPath></defs><g clip-path="url(#1d77fe8e8f)"><path fill="#ff7f21" d="M 108.410156 34.546875 C 108.769531 34.90625 109.308594 34.90625 109.667969 34.90625 C 110.921875 34.90625 112.175781 35.085938 113.429688 35.085938 C 114.328125 35.085938 115.042969 35.085938 115.941406 35.265625 C 117.195312 35.445312 118.449219 35.625 119.707031 35.804688 C 126.519531 37.058594 132.972656 39.207031 138.707031 43.152344 C 143.546875 46.378906 147.3125 50.679688 150.179688 55.699219 C 151.078125 57.3125 151.972656 58.925781 152.691406 60.539062 C 156.097656 68.246094 158.964844 76.128906 161.113281 84.195312 C 161.472656 85.449219 161.652344 86.527344 162.011719 87.78125 C 162.191406 88.496094 162.191406 89.035156 162.191406 89.753906 C 162.191406 90.648438 162.011719 91.1875 161.292969 91.722656 C 160.9375 92.082031 160.578125 92.261719 160.039062 92.261719 C 159.859375 92.261719 159.679688 92.261719 159.503906 92.261719 C 158.066406 92.261719 156.453125 92.261719 155.199219 92.800781 C 154.839844 92.980469 154.480469 92.980469 154.125 92.800781 C 151.972656 92.441406 150 91.722656 148.207031 90.46875 C 146.058594 89.214844 144.265625 87.601562 142.472656 85.808594 C 140.320312 83.660156 138.167969 81.328125 136.199219 78.820312 C 133.867188 75.953125 131.714844 72.90625 129.566406 69.679688 C 128.667969 68.421875 127.59375 67.347656 126.160156 66.632812 C 125.082031 66.09375 123.828125 65.734375 122.574219 65.734375 C 120.0625 65.914062 117.375 65.914062 114.863281 65.914062 C 113.253906 65.914062 111.816406 65.914062 110.203125 66.273438 C 109.847656 66.273438 109.308594 66.273438 108.769531 66.273438 C 106.976562 66.273438 105.183594 66.273438 103.390625 66.632812 C 103.035156 66.632812 102.496094 66.632812 101.957031 66.632812 C 101.0625 66.632812 99.988281 66.632812 99.089844 66.988281 C 98.910156 66.988281 98.730469 66.988281 98.550781 66.988281 C 96.9375 66.988281 95.503906 67.347656 93.890625 67.527344 C 91.382812 67.886719 88.871094 68.246094 86.542969 68.960938 C 85.644531 69.320312 84.75 69.5 84.03125 70.035156 C 83.136719 70.394531 82.597656 70.933594 82.058594 71.828125 C 81.878906 72.1875 81.703125 72.546875 81.34375 72.726562 C 80.625 73.441406 80.089844 73.980469 79.371094 74.515625 C 77.9375 75.953125 76.859375 77.386719 75.785156 79 C 73.8125 82.046875 72.917969 85.273438 72.917969 88.855469 C 72.917969 91.722656 72.917969 94.59375 73.097656 97.460938 C 73.277344 98.714844 73.097656 99.96875 73.277344 101.402344 C 73.277344 102.65625 73.457031 103.910156 73.457031 104.988281 C 73.457031 105.523438 73.457031 106.242188 73.632812 106.78125 C 73.8125 109.109375 74.171875 111.621094 74.890625 113.769531 C 75.070312 114.488281 75.246094 115.203125 75.785156 115.921875 C 75.964844 116.28125 76.324219 116.636719 76.859375 116.636719 C 77.578125 116.636719 78.296875 116.636719 79.011719 116.636719 L 117.734375 116.636719 C 119.167969 116.636719 120.601562 116.636719 122.035156 116.636719 C 123.46875 116.636719 124.726562 116.636719 126.160156 116.996094 C 127.414062 117.175781 128.667969 117.355469 129.742188 117.535156 C 132.613281 118.070312 135.480469 118.789062 137.992188 120.222656 C 139.605469 121.117188 140.859375 122.015625 142.113281 123.269531 C 143.007812 124.164062 143.546875 125.242188 143.726562 126.496094 C 144.085938 128.648438 144.445312 130.617188 144.800781 132.769531 C 144.800781 133.128906 144.980469 133.484375 144.980469 133.664062 C 144.980469 135.636719 144.980469 137.609375 144.800781 139.402344 C 144.625 140.476562 144.445312 141.550781 144.265625 142.625 C 144.085938 143.703125 143.726562 144.777344 143.1875 145.671875 C 142.832031 146.570312 142.292969 147.289062 141.394531 148.003906 C 140.679688 148.722656 139.605469 149.078125 138.527344 149.257812 C 137.632812 149.257812 136.914062 149.4375 136.019531 149.617188 C 135.660156 149.796875 135.121094 149.617188 134.585938 149.617188 C 128.667969 149.617188 122.933594 149.617188 117.015625 149.617188 C 116.121094 149.617188 115.402344 149.4375 114.507812 149.4375 C 113.429688 149.4375 112.355469 149.257812 111.460938 149.257812 C 109.847656 149.257812 108.054688 149.257812 106.441406 149.257812 C 105.542969 149.257812 104.46875 149.078125 103.570312 149.078125 C 102.496094 149.078125 101.421875 148.898438 100.523438 148.898438 C 98.910156 148.898438 97.117188 148.898438 95.503906 148.898438 C 94.609375 148.898438 93.890625 148.898438 92.996094 148.722656 C 91.203125 148.542969 89.410156 148.542969 87.617188 148.542969 C 87.4375 148.542969 87.257812 148.542969 87.078125 148.542969 C 86.363281 148.542969 85.824219 148.898438 85.464844 149.4375 C 84.75 150.691406 84.210938 151.949219 84.390625 153.558594 C 84.390625 153.917969 84.390625 154.277344 84.390625 154.636719 C 84.75 157.144531 85.105469 159.65625 85.464844 162.164062 C 85.644531 163.777344 85.824219 165.210938 86.003906 166.824219 C 86.183594 168.257812 86.363281 169.691406 86.542969 171.125 C 86.722656 173.277344 87.078125 175.425781 87.257812 177.398438 C 87.4375 179.191406 87.617188 180.984375 87.976562 182.773438 C 88.15625 184.03125 88.335938 185.285156 88.335938 186.359375 C 88.511719 188.152344 88.691406 189.945312 88.871094 191.738281 C 89.050781 193.707031 89.230469 195.859375 89.410156 197.832031 C 89.410156 198.011719 89.410156 198.191406 89.410156 198.367188 C 89.589844 200.339844 89.769531 202.3125 89.949219 204.285156 C 90.125 206.433594 90.304688 208.585938 90.484375 210.734375 C 90.484375 211.273438 90.484375 211.8125 90.664062 212.347656 C 90.664062 213.246094 90.84375 214.320312 90.84375 215.214844 C 90.84375 215.753906 90.84375 216.113281 91.023438 216.652344 C 91.203125 217.726562 91.203125 218.980469 91.382812 220.054688 C 91.382812 220.59375 91.382812 221.132812 91.5625 221.667969 C 91.5625 222.746094 91.738281 223.820312 91.738281 224.714844 C 91.738281 225.253906 91.738281 225.972656 91.917969 226.507812 C 91.917969 227.582031 92.097656 228.660156 92.097656 229.554688 C 92.097656 229.734375 92.097656 229.734375 92.097656 229.914062 C 92.277344 232.246094 92.457031 234.753906 92.636719 237.082031 C 92.636719 237.621094 92.636719 237.980469 92.636719 238.515625 C 92.996094 240.667969 92.816406 242.820312 93.175781 244.96875 C 93.175781 245.148438 93.175781 245.328125 93.175781 245.507812 C 93.175781 245.6875 92.996094 246.046875 92.816406 246.226562 C 91.5625 247.121094 90.125 247.660156 88.691406 247.835938 C 87.257812 248.015625 85.644531 248.015625 84.210938 248.015625 C 83.671875 248.015625 83.136719 248.015625 82.417969 247.835938 C 75.425781 247.480469 68.257812 244.613281 63.058594 239.949219 C 60.191406 237.261719 57.859375 234.214844 55.886719 230.808594 C 55.171875 229.375 54.453125 227.941406 53.734375 226.507812 C 53.558594 226.148438 53.378906 225.792969 53.378906 225.433594 C 53.019531 224.539062 53.019531 223.460938 53.558594 222.566406 C 54.09375 221.667969 54.09375 220.773438 53.558594 219.875 C 53.019531 218.265625 52.480469 216.472656 52.121094 214.859375 C 51.585938 212.707031 51.40625 210.558594 51.046875 208.40625 C 50.6875 205.359375 50.6875 202.492188 50.507812 199.445312 C 50.332031 194.246094 50.332031 189.046875 50.152344 183.671875 C 49.972656 177.9375 49.972656 172.199219 49.792969 166.464844 C 49.613281 162.523438 49.433594 158.398438 49.433594 154.457031 C 49.433594 153.558594 49.253906 152.84375 49.074219 151.949219 C 48.894531 151.589844 48.714844 151.050781 48.539062 150.691406 C 48 149.796875 47.28125 149.4375 46.386719 149.257812 C 46.207031 149.257812 46.207031 149.257812 46.027344 149.257812 C 39.574219 149.257812 34.554688 146.390625 30.609375 141.550781 C 28.996094 139.757812 27.742188 137.609375 26.667969 135.636719 C 25.769531 134.023438 25.054688 132.410156 24.335938 130.617188 C 24.15625 130.257812 23.976562 129.722656 23.800781 129.363281 C 23.621094 129.003906 23.261719 129.003906 22.902344 129.183594 L 22.902344 126.136719 C 23.261719 126.136719 23.621094 125.957031 23.800781 125.421875 C 24.335938 123.808594 25.414062 122.730469 26.847656 122.015625 C 27.5625 121.476562 28.460938 121.117188 29.355469 120.761719 C 30.433594 120.402344 31.507812 119.863281 32.582031 119.683594 C 35.273438 118.96875 38.140625 118.429688 41.007812 118.070312 C 41.367188 118.070312 41.726562 117.890625 41.90625 117.890625 C 43.875 117.355469 45.132812 115.382812 44.773438 113.410156 C 44.59375 112.515625 44.414062 111.441406 44.234375 110.542969 C 43.339844 106.421875 42.621094 102.300781 41.726562 98.175781 C 41.1875 95.667969 40.828125 93.15625 40.46875 90.828125 C 40.113281 88.496094 39.753906 86.167969 39.394531 83.660156 C 39.214844 82.222656 39.035156 80.789062 38.855469 79.175781 C 38.679688 75.773438 38.679688 72.546875 38.855469 69.140625 C 38.855469 66.808594 39.394531 64.660156 40.292969 62.507812 C 41.546875 59.28125 43.339844 56.59375 45.667969 54.085938 C 47.640625 52.113281 49.613281 50.5 51.945312 48.886719 C 54.8125 47.09375 57.859375 45.480469 61.085938 44.046875 C 67.539062 41.359375 74.351562 39.386719 81.164062 37.953125 C 83.671875 37.414062 86.003906 36.878906 88.511719 36.160156 C 89.589844 35.804688 90.664062 35.445312 91.738281 35.265625 C 94.25 34.726562 96.9375 34.011719 99.628906 34.011719 C 100.164062 34.011719 100.703125 33.832031 101.0625 33.652344 L 108.410156 33.652344 Z M 108.410156 34.546875 " fill-opacity="1" fill-rule="evenodd"/></g><g clip-path="url(#1883fb7cf3)"><path fill="#ff7f21" d="M 701.417969 249.09375 C 697.117188 249.273438 692.8125 248.914062 688.691406 248.734375 C 688.152344 248.734375 687.792969 248.734375 687.257812 248.554688 C 686.71875 248.554688 686.359375 248.375 685.824219 248.375 C 679.367188 247.660156 673.273438 245.867188 667.71875 242.640625 C 662.339844 239.59375 657.855469 235.292969 654.453125 230.09375 C 652.835938 227.765625 651.582031 225.253906 650.328125 222.566406 C 649.96875 221.492188 649.433594 220.59375 649.253906 219.519531 C 647.101562 212.171875 644.949219 204.824219 643.15625 197.472656 C 642.082031 192.8125 641.007812 188.332031 640.289062 183.671875 C 639.75 180.265625 639.394531 176.683594 639.394531 173.277344 C 639.394531 172.378906 639.394531 171.304688 639.394531 170.410156 C 639.214844 166.464844 639.570312 162.703125 639.75 158.757812 C 639.929688 156.964844 640.109375 155.171875 640.289062 153.382812 C 640.648438 151.050781 641.007812 148.722656 641.542969 146.390625 C 642.980469 140.296875 644.949219 134.382812 647.996094 128.828125 C 652.300781 120.761719 658.035156 114.128906 665.207031 108.574219 C 668.433594 106.0625 671.839844 103.914062 675.425781 101.941406 C 677.398438 100.867188 679.546875 100.148438 681.699219 99.253906 C 685.464844 97.820312 689.230469 96.742188 692.992188 95.847656 C 694.785156 95.488281 696.578125 95.128906 698.371094 94.949219 C 700.164062 94.59375 701.777344 94.773438 703.570312 94.414062 C 703.929688 94.234375 704.464844 94.414062 705.003906 94.414062 C 708.769531 94.414062 712.710938 94.414062 716.476562 94.414062 C 717.191406 94.414062 718.089844 94.59375 718.808594 94.59375 C 718.984375 94.59375 719.34375 94.59375 719.523438 94.773438 C 726.875 95.308594 733.863281 97.101562 739.78125 99.074219 C 742.832031 100.148438 745.699219 101.222656 748.566406 102.480469 C 749.636719 103.015625 750.714844 103.554688 751.613281 104.09375 C 755.195312 106.601562 758.421875 109.828125 760.929688 113.410156 C 763.265625 116.636719 765.058594 120.042969 766.496094 123.628906 C 767.386719 125.601562 768.105469 127.75 768.824219 129.902344 C 769.363281 131.515625 769.714844 133.128906 770.074219 134.742188 C 771.511719 140.65625 772.761719 146.390625 774.199219 152.304688 C 774.558594 153.738281 774.738281 154.996094 774.378906 156.429688 C 773.839844 159.65625 773.121094 162.703125 771.871094 165.75 C 771.332031 167.003906 770.792969 168.257812 770.074219 169.332031 C 769.535156 170.050781 769.003906 170.765625 768.285156 171.304688 C 767.207031 172.203125 765.777344 172.738281 764.339844 172.738281 C 763.621094 172.738281 762.726562 172.738281 762.007812 172.738281 C 761.648438 172.738281 761.289062 172.738281 760.929688 172.558594 C 758.78125 172.203125 756.8125 171.84375 754.664062 171.484375 C 753.765625 171.304688 752.6875 171.304688 751.792969 170.945312 C 750.894531 170.765625 750.175781 170.765625 749.277344 170.765625 C 741.394531 170.765625 733.6875 170.765625 725.796875 170.765625 C 723.824219 170.765625 721.855469 170.765625 720.0625 171.125 C 719.523438 171.125 718.808594 171.125 718.269531 171.125 C 717.191406 171.125 716.117188 171.125 715.042969 171.484375 C 714.503906 171.664062 713.96875 171.484375 713.429688 171.664062 C 712.710938 171.664062 711.996094 171.84375 711.277344 171.84375 C 711.097656 171.84375 710.917969 172.023438 710.738281 172.023438 C 709.128906 172.023438 707.691406 172.378906 706.078125 172.558594 C 704.644531 172.738281 703.390625 172.917969 702.136719 173.097656 C 701.238281 173.277344 700.164062 173.457031 699.265625 173.457031 C 694.964844 174.171875 690.664062 174.890625 686.359375 175.785156 C 682.953125 176.503906 679.726562 177.21875 676.320312 177.9375 C 675.785156 178.117188 675.246094 178.296875 674.707031 178.296875 C 674.171875 178.472656 673.992188 178.832031 673.992188 179.371094 C 673.992188 179.910156 673.992188 180.445312 674.171875 180.984375 C 675.425781 188.332031 676.859375 195.679688 679.191406 202.671875 C 680.445312 206.613281 681.878906 210.558594 683.851562 214.320312 C 684.925781 216.472656 686.179688 218.625 687.792969 220.59375 C 689.050781 222.207031 690.304688 223.640625 691.917969 224.898438 C 694.246094 226.6875 696.757812 227.941406 699.625 228.480469 C 700.164062 228.660156 700.703125 228.660156 701.238281 228.660156 C 704.464844 228.660156 707.511719 228.660156 710.738281 228.660156 C 711.457031 228.660156 712.175781 228.480469 712.890625 228.480469 C 713.25 228.480469 713.609375 228.300781 713.789062 228.300781 C 722.214844 227.585938 730.816406 224.71875 738.347656 220.414062 C 743.722656 217.1875 748.386719 213.425781 752.6875 208.945312 C 756.992188 204.464844 760.578125 199.445312 763.800781 194.246094 C 764.160156 193.53125 764.699219 192.8125 765.058594 192.097656 C 765.238281 191.738281 765.777344 191.558594 766.136719 191.558594 C 766.667969 191.558594 767.027344 191.558594 767.566406 191.558594 C 768.105469 191.558594 768.464844 191.558594 769.003906 191.558594 C 770.613281 191.199219 772.402344 191.199219 774.019531 191.199219 C 774.558594 191.199219 775.097656 191.019531 775.632812 191.019531 C 776.171875 191.019531 776.53125 190.839844 777.070312 190.839844 C 778.679688 190.839844 780.117188 190.839844 781.726562 190.484375 C 782.265625 190.304688 782.984375 190.484375 783.523438 190.484375 C 784.59375 190.484375 785.671875 190.304688 786.574219 190.304688 C 788.003906 190.125 789.441406 190.125 790.871094 190.125 C 791.230469 190.125 791.410156 190.484375 791.589844 190.664062 C 791.589844 190.839844 791.589844 191.199219 791.769531 191.378906 C 791.769531 193.890625 791.769531 196.398438 791.589844 198.90625 C 791.410156 200.878906 790.871094 203.03125 790.332031 205 C 789.082031 209.125 787.105469 212.707031 784.414062 216.113281 C 782.085938 219.339844 779.21875 222.027344 776.171875 224.539062 C 772.582031 227.585938 768.644531 230.09375 764.699219 232.425781 C 759.320312 235.472656 753.585938 238.160156 747.667969 240.488281 C 740.496094 243.355469 733.328125 245.6875 725.976562 247.660156 C 724.902344 248.015625 723.648438 248.195312 722.570312 248.195312 C 721.675781 248.375 720.957031 248.375 720.0625 248.554688 C 718.269531 248.734375 716.65625 248.914062 714.863281 249.09375 C 712.53125 249.273438 710.023438 249.273438 707.691406 249.273438 C 705.003906 249.09375 703.210938 249.09375 701.417969 249.09375 Z M 738.167969 146.75 C 738.167969 144.0625 737.808594 141.550781 737.449219 139.042969 C 736.914062 136.175781 736.195312 133.488281 735.121094 130.796875 C 733.6875 127.035156 731.535156 123.808594 728.667969 120.941406 C 724.722656 116.996094 719.882812 114.308594 714.503906 112.695312 C 713.609375 112.515625 712.710938 112.335938 711.816406 112.515625 C 710.203125 112.875 708.410156 112.875 706.796875 113.054688 C 703.929688 113.589844 701.238281 114.488281 698.550781 115.742188 C 694.246094 117.714844 690.839844 120.582031 687.613281 123.988281 C 685.105469 126.855469 682.953125 130.082031 681.160156 133.664062 C 679.191406 137.25 677.753906 141.195312 676.320312 145.136719 C 675.066406 148.722656 674.171875 152.484375 673.8125 156.25 C 673.8125 156.609375 673.8125 156.964844 673.8125 157.144531 C 673.8125 157.324219 673.992188 157.683594 674.347656 157.683594 C 675.246094 157.683594 676.320312 157.683594 677.21875 157.503906 C 677.933594 157.324219 678.652344 157.324219 679.367188 157.324219 C 679.726562 157.324219 680.085938 157.324219 680.445312 157.144531 C 681.160156 156.964844 681.878906 156.964844 682.597656 156.964844 C 682.953125 156.964844 683.3125 156.964844 683.671875 156.789062 C 684.386719 156.609375 685.105469 156.609375 685.824219 156.609375 C 686.179688 156.609375 686.539062 156.609375 686.898438 156.429688 C 687.613281 156.25 688.332031 156.25 689.050781 156.25 C 689.585938 156.25 689.945312 156.070312 690.484375 156.070312 C 691.199219 156.070312 691.738281 155.890625 692.453125 155.890625 C 692.8125 155.890625 693.171875 155.890625 693.53125 155.710938 C 694.246094 155.53125 695.144531 155.53125 695.863281 155.351562 C 696.21875 155.351562 696.578125 155.351562 696.9375 155.171875 C 697.652344 155.171875 698.191406 154.996094 698.910156 154.996094 C 699.445312 154.996094 699.804688 154.996094 700.34375 154.816406 C 701.058594 154.636719 701.597656 154.636719 702.316406 154.636719 C 702.851562 154.636719 703.210938 154.636719 703.75 154.457031 C 704.464844 154.277344 705.183594 154.277344 705.898438 154.277344 C 706.257812 154.277344 706.617188 154.277344 706.976562 154.097656 C 708.589844 153.917969 710.023438 153.738281 711.636719 153.5625 C 713.25 153.382812 714.863281 153.203125 716.476562 153.023438 C 717.191406 153.023438 717.730469 152.84375 718.449219 152.664062 C 720.0625 152.484375 721.675781 152.304688 723.289062 152.128906 C 723.46875 152.128906 723.46875 152.128906 723.648438 152.128906 C 724.363281 152.128906 724.902344 151.949219 725.617188 151.949219 C 726.15625 151.949219 726.515625 151.769531 727.054688 151.769531 C 727.769531 151.769531 728.308594 151.589844 729.023438 151.589844 C 729.5625 151.589844 730.101562 151.410156 730.636719 151.410156 C 731.175781 151.410156 731.714844 151.230469 732.25 151.230469 C 732.789062 151.230469 733.148438 151.230469 733.6875 151.050781 C 734.582031 150.871094 735.300781 150.871094 736.195312 150.691406 C 736.914062 150.691406 737.808594 150.511719 738.527344 150.335938 C 738.707031 150.335938 738.882812 150.15625 738.882812 149.976562 C 738.882812 149.617188 739.0625 149.257812 739.0625 148.902344 C 738.347656 148.003906 738.167969 147.289062 738.167969 146.75 Z M 738.167969 146.75 " fill-opacity="1" fill-rule="evenodd"/></g><g clip-path="url(#f9a923220c)"><path fill="#ff7f21" d="M 244.472656 249.273438 C 240.167969 249.273438 235.867188 249.09375 231.746094 248.914062 C 231.207031 248.914062 230.847656 248.734375 230.308594 248.734375 C 229.773438 248.734375 229.414062 248.554688 228.875 248.554688 C 222.242188 247.660156 215.96875 245.867188 210.234375 242.460938 C 204.675781 239.234375 200.371094 234.753906 196.96875 229.378906 C 195.710938 227.226562 194.457031 225.078125 193.5625 222.925781 C 193.203125 222.03125 192.84375 220.953125 192.484375 220.058594 C 190.15625 212.710938 188.183594 205.183594 186.210938 197.652344 C 185.136719 193.171875 184.058594 188.511719 183.34375 184.03125 C 182.804688 180.449219 182.445312 177.042969 182.445312 173.457031 C 182.445312 171.84375 182.445312 170.050781 182.445312 168.4375 C 182.445312 166.464844 182.445312 164.496094 182.625 162.34375 C 182.625 161.808594 182.625 161.269531 182.804688 160.550781 C 183.34375 152.84375 184.597656 145.136719 187.285156 137.789062 C 192.128906 124.167969 200.730469 113.59375 212.742188 105.707031 C 219.015625 101.582031 220.808594 100.867188 228.515625 98.179688 C 231.746094 97.101562 234.972656 96.207031 238.199219 95.667969 C 240.347656 95.308594 242.5 94.773438 244.652344 94.773438 C 244.832031 94.773438 245.011719 94.773438 245.1875 94.773438 C 246.980469 94.414062 248.59375 94.414062 250.386719 94.414062 C 253.433594 94.414062 256.304688 94.414062 259.351562 94.414062 C 260.246094 94.414062 260.964844 94.414062 261.859375 94.59375 C 262.21875 94.59375 262.578125 94.773438 262.9375 94.773438 C 264.550781 94.773438 265.984375 95.132812 267.597656 95.308594 C 269.75 95.667969 271.71875 96.027344 273.871094 96.566406 C 279.964844 98 285.703125 99.96875 291.4375 102.480469 C 292.875 103.019531 294.128906 103.914062 295.382812 104.628906 C 298.789062 107.140625 301.65625 110.1875 304.167969 113.59375 C 306.855469 117.355469 308.828125 121.300781 310.441406 125.601562 C 311.515625 128.648438 312.414062 131.695312 313.128906 134.742188 C 314.5625 140.65625 316 146.75 317.253906 152.664062 C 317.253906 153.023438 317.433594 153.382812 317.433594 153.742188 C 317.613281 154.277344 317.613281 154.816406 317.433594 155.175781 C 317.074219 157.863281 316.535156 160.730469 315.640625 163.242188 C 315.28125 164.675781 314.742188 166.109375 314.027344 167.363281 C 313.488281 168.617188 312.773438 169.691406 311.695312 170.769531 C 310.800781 171.664062 309.722656 172.382812 308.289062 172.742188 C 308.109375 172.742188 308.109375 172.917969 307.929688 172.917969 C 306.496094 172.917969 305.242188 172.917969 303.808594 172.917969 C 301.121094 172.382812 298.609375 172.023438 295.921875 171.484375 C 294.128906 171.125 292.15625 170.949219 290.363281 170.949219 C 283.550781 170.949219 276.738281 170.949219 269.925781 170.949219 C 268.492188 170.949219 267.058594 170.949219 265.625 170.949219 C 264.910156 170.949219 264.191406 170.949219 263.472656 171.125 C 262.578125 171.125 261.5 171.304688 260.605469 171.304688 C 259.53125 171.304688 258.453125 171.304688 257.558594 171.664062 C 257.199219 171.664062 256.660156 171.84375 256.125 171.84375 C 255.226562 171.84375 254.511719 171.84375 253.613281 172.023438 C 253.253906 172.203125 252.898438 172.023438 252.539062 172.203125 C 251.820312 172.203125 251.105469 172.382812 250.386719 172.382812 C 250.207031 172.382812 249.851562 172.5625 249.671875 172.5625 C 247.878906 172.742188 246.265625 173.097656 244.472656 173.277344 C 242.5 173.457031 240.527344 173.816406 238.554688 174.175781 C 236.761719 174.351562 235.148438 174.710938 233.355469 175.070312 C 231.746094 175.429688 230.132812 175.785156 228.339844 175.964844 C 225.46875 176.503906 222.601562 177.222656 219.734375 177.757812 C 218.65625 177.9375 217.761719 178.296875 216.6875 178.476562 C 216.328125 178.476562 216.148438 178.832031 216.148438 179.191406 C 216.148438 179.730469 216.148438 180.449219 216.328125 180.984375 C 217.582031 187.976562 219.015625 195.144531 220.988281 201.957031 C 222.0625 205.71875 223.5 209.304688 225.113281 212.890625 C 226.1875 215.039062 227.261719 217.191406 228.695312 219.160156 C 229.773438 220.773438 231.027344 222.386719 232.460938 223.820312 C 234.613281 225.792969 236.941406 227.40625 239.632812 228.300781 C 240.886719 228.660156 242.320312 229.019531 243.574219 229.019531 C 246.265625 229.019531 248.953125 229.019531 251.464844 229.019531 C 252.71875 229.019531 253.792969 229.019531 254.867188 228.660156 C 255.046875 228.660156 255.226562 228.660156 255.40625 228.660156 C 258.277344 228.480469 260.964844 227.945312 263.832031 227.226562 C 275.664062 224.359375 285.523438 218.265625 293.949219 209.484375 C 298.429688 204.824219 302.375 199.445312 305.78125 193.890625 C 306.140625 193.351562 306.496094 192.816406 306.855469 192.277344 C 307.035156 191.917969 307.394531 191.738281 307.574219 191.738281 C 307.929688 191.738281 308.289062 191.738281 308.648438 191.738281 C 309.367188 191.738281 309.902344 191.738281 310.621094 191.558594 C 312.234375 191.199219 313.667969 191.378906 315.28125 191.199219 C 317.253906 191.023438 319.226562 191.023438 321.195312 190.84375 C 322.808594 190.664062 324.425781 190.484375 326.039062 190.484375 C 326.394531 190.484375 326.753906 190.484375 327.113281 190.304688 C 328.546875 189.945312 330.160156 190.125 331.59375 189.945312 C 331.773438 189.945312 331.773438 189.945312 331.953125 189.945312 C 332.3125 189.945312 332.671875 190.304688 332.671875 190.484375 C 332.671875 190.84375 332.847656 191.199219 332.847656 191.558594 C 332.847656 193.890625 332.847656 196.039062 332.671875 198.371094 C 332.3125 201.417969 331.59375 204.285156 330.519531 207.152344 C 328.546875 211.992188 325.679688 216.113281 322.09375 219.878906 C 319.226562 222.925781 316 225.613281 312.414062 228.125 C 307.214844 231.707031 301.65625 234.753906 295.921875 237.445312 C 289.289062 240.492188 282.296875 243 275.304688 245.152344 C 272.617188 246.046875 269.75 246.765625 266.878906 247.660156 C 266.519531 247.839844 266.164062 247.839844 265.804688 247.839844 C 263.472656 248.199219 261.144531 248.375 258.8125 248.734375 C 256.125 249.09375 253.433594 249.09375 250.925781 249.09375 C 249.671875 249.09375 247.160156 249.09375 244.472656 249.273438 Z M 281.398438 146.929688 C 281.398438 145.316406 281.222656 143.523438 281.042969 141.910156 C 280.683594 138.507812 279.789062 135.101562 278.53125 131.695312 C 277.097656 127.753906 274.765625 124.167969 271.898438 121.121094 C 267.957031 117.175781 263.117188 114.488281 257.738281 112.875 C 256.839844 112.695312 255.945312 112.515625 255.046875 112.695312 C 253.433594 113.054688 251.644531 113.054688 250.027344 113.234375 C 247.160156 113.773438 244.292969 114.667969 241.605469 115.921875 C 237.300781 117.894531 233.714844 120.941406 230.667969 124.347656 C 228.160156 127.214844 226.1875 130.261719 224.394531 133.667969 C 222.421875 137.25 220.808594 141.195312 219.734375 145.136719 C 219.195312 147.109375 218.480469 149.082031 217.941406 151.050781 C 217.582031 152.664062 217.402344 154.457031 217.042969 156.25 C 217.042969 156.609375 217.042969 156.96875 217.042969 157.148438 C 217.042969 157.324219 217.222656 157.683594 217.582031 157.683594 C 218.65625 157.683594 219.734375 157.683594 220.628906 157.503906 C 221.167969 157.324219 221.707031 157.324219 222.421875 157.324219 C 222.960938 157.324219 223.320312 157.324219 223.855469 157.148438 C 224.574219 156.96875 225.289062 156.96875 226.007812 156.96875 C 226.546875 156.96875 227.082031 156.789062 227.621094 156.789062 C 227.980469 156.789062 228.339844 156.609375 228.695312 156.609375 C 230.308594 156.429688 231.921875 156.25 233.535156 156.070312 C 233.714844 156.070312 233.714844 156.070312 233.894531 156.070312 C 234.613281 156.070312 235.148438 155.890625 235.867188 155.890625 C 236.40625 155.890625 236.761719 155.890625 237.300781 155.710938 C 238.019531 155.53125 238.554688 155.53125 239.273438 155.53125 C 239.8125 155.53125 240.167969 155.53125 240.707031 155.355469 C 241.425781 155.175781 242.140625 155.175781 242.859375 155.175781 C 243.21875 155.175781 243.574219 155.175781 243.933594 154.996094 C 244.652344 154.816406 245.367188 154.816406 246.085938 154.816406 C 246.445312 154.816406 246.800781 154.816406 247.160156 154.636719 C 247.878906 154.457031 248.59375 154.457031 249.3125 154.457031 C 249.851562 154.457031 250.386719 154.277344 250.925781 154.277344 C 251.285156 154.277344 251.644531 154.097656 252 154.097656 L 256.839844 153.5625 C 257.019531 153.5625 257.019531 153.5625 257.199219 153.5625 C 257.738281 153.382812 258.453125 153.382812 259.171875 153.382812 C 259.53125 153.382812 259.886719 153.382812 260.246094 153.203125 C 260.964844 153.023438 261.859375 153.023438 262.578125 152.84375 C 262.9375 152.84375 263.292969 152.84375 263.652344 152.664062 C 264.371094 152.488281 264.910156 152.488281 265.625 152.488281 C 266.164062 152.488281 266.519531 152.488281 267.058594 152.308594 C 267.777344 152.128906 268.492188 152.128906 269.210938 152.128906 C 269.570312 152.128906 269.925781 152.128906 270.285156 151.949219 C 271.003906 151.769531 271.71875 151.769531 272.4375 151.769531 C 272.796875 151.769531 273.15625 151.769531 273.511719 151.589844 C 274.230469 151.410156 274.945312 151.410156 275.664062 151.410156 C 276.023438 151.410156 276.382812 151.410156 276.738281 151.230469 C 277.457031 151.050781 278.171875 151.050781 278.890625 151.050781 C 279.605469 151.050781 280.144531 150.875 280.863281 150.695312 C 281.757812 150.515625 281.9375 150.335938 281.9375 149.441406 C 281.398438 148.363281 281.398438 147.648438 281.398438 146.929688 Z M 281.398438 146.929688 " fill-opacity="1" fill-rule="evenodd"/></g><path fill="#ff7f21" d="M 351.675781 167.71875 C 351.675781 161.625 351.675781 155.53125 351.675781 149.4375 C 351.675781 146.75 351.855469 144.0625 352.210938 141.371094 C 352.390625 138.863281 352.929688 136.355469 353.648438 134.023438 C 354.003906 132.949219 354.363281 131.871094 354.902344 130.976562 C 355.261719 130.257812 355.796875 129.542969 356.515625 129.003906 C 357.050781 128.644531 357.589844 128.289062 358.128906 128.109375 C 359.382812 127.75 360.457031 127.929688 361.355469 128.644531 C 362.070312 129.183594 362.789062 129.722656 363.503906 130.4375 C 364.941406 131.871094 366.375 133.304688 367.808594 134.917969 C 369.78125 137.25 371.574219 139.578125 373.542969 142.089844 C 374.261719 142.984375 374.800781 144.0625 375.335938 144.957031 C 377.128906 148.003906 378.382812 151.410156 379.640625 154.8125 C 380.535156 157.324219 381.253906 159.832031 381.96875 162.164062 C 382.148438 162.699219 382.328125 163.238281 382.507812 163.777344 C 382.507812 163.957031 382.867188 163.957031 383.046875 163.777344 C 383.226562 163.597656 383.402344 163.417969 383.402344 163.238281 C 385.554688 158.9375 388.246094 155.171875 391.113281 151.410156 C 395.59375 145.671875 400.433594 140.476562 405.273438 135.097656 C 405.632812 134.738281 406.171875 134.203125 406.53125 133.84375 C 413.519531 127.75 420.871094 122.015625 428.757812 116.996094 C 435.929688 112.515625 443.636719 108.570312 451.523438 105.523438 C 454.214844 104.449219 456.902344 103.375 459.769531 102.65625 C 461.027344 102.296875 462.28125 101.941406 463.535156 102.121094 C 464.429688 102.296875 465.328125 102.296875 466.222656 102.65625 C 467.300781 103.015625 468.554688 103.015625 469.628906 102.835938 C 470.886719 102.65625 471.960938 102.476562 473.214844 102.296875 C 473.933594 102.121094 474.648438 102.296875 475.367188 102.476562 C 476.621094 102.835938 477.875 103.195312 478.953125 103.910156 C 480.386719 104.808594 481.460938 105.882812 482 107.496094 C 482.359375 108.394531 482.539062 109.46875 482.539062 110.542969 C 482.539062 111.082031 482.179688 111.621094 482 112.15625 C 482 112.335938 482.179688 112.515625 482.179688 112.695312 C 482.179688 112.695312 482.359375 112.695312 482.539062 112.875 C 482.894531 113.054688 483.253906 113.054688 483.613281 113.230469 C 484.328125 113.589844 484.6875 114.128906 484.867188 114.84375 C 484.867188 115.203125 484.867188 115.5625 484.867188 115.742188 C 484.867188 116.816406 484.867188 117.890625 484.867188 118.789062 C 484.867188 119.863281 484.507812 120.9375 483.972656 122.015625 C 483.613281 122.730469 483.074219 123.269531 482.71875 123.988281 C 482.359375 124.34375 482 124.703125 481.820312 125.242188 C 481.640625 125.597656 481.460938 125.957031 481.460938 126.316406 C 481.460938 126.675781 481.460938 127.035156 481.460938 127.570312 C 481.460938 129.363281 480.925781 130.796875 479.847656 132.230469 C 479.308594 133.128906 478.414062 133.84375 477.695312 134.382812 C 476.800781 135.097656 475.90625 135.816406 474.828125 136.355469 C 473.933594 136.890625 473.035156 137.25 471.960938 137.609375 C 469.988281 138.324219 468.375 139.222656 466.582031 140.296875 C 456.1875 146.390625 445.96875 153.023438 436.464844 160.371094 C 430.191406 165.210938 430.191406 165.210938 424.636719 170.945312 C 420.511719 175.246094 416.570312 179.550781 412.984375 184.210938 C 411.011719 186.71875 409.039062 189.226562 407.246094 191.917969 C 406.351562 193.171875 405.632812 194.605469 404.914062 195.859375 C 402.40625 200.699219 399.898438 205.539062 397.566406 210.378906 C 396.492188 212.707031 395.414062 215.214844 394.519531 217.726562 C 393.980469 219.339844 393.265625 221.132812 392.90625 222.921875 C 392.367188 225.433594 391.648438 227.761719 390.933594 230.273438 C 389.5 235.828125 387.886719 241.386719 386.453125 246.941406 C 385.914062 249.09375 386.09375 249.273438 383.761719 248.375 C 378.382812 246.222656 373.367188 243 368.882812 239.234375 C 368.347656 238.695312 367.808594 238.339844 367.269531 237.800781 C 365.121094 236.007812 363.328125 233.679688 361.894531 231.167969 C 359.5625 227.226562 357.769531 223.101562 356.335938 218.621094 C 355.082031 214.679688 354.183594 210.734375 353.648438 206.792969 C 353.289062 204.464844 352.929688 202.132812 352.570312 199.625 C 352.390625 197.472656 352.03125 195.320312 352.03125 193.171875 C 352.03125 192.8125 352.03125 192.453125 352.03125 191.917969 C 351.675781 188.691406 351.675781 185.644531 351.675781 182.417969 C 351.675781 177.578125 351.675781 172.738281 351.675781 167.71875 Z M 351.675781 167.71875 " fill-opacity="1" fill-rule="evenodd"/><g clip-path="url(#1fe9bfaaf1)"><path fill="#ff7f21" d="M 626.484375 125.597656 C 626.484375 126.136719 626.484375 126.675781 626.484375 127.210938 C 626.484375 129.363281 625.769531 131.15625 624.335938 132.769531 C 623.4375 133.84375 622.183594 134.917969 620.929688 135.636719 C 619.316406 136.710938 617.703125 137.429688 615.910156 138.144531 C 615.011719 138.503906 614.117188 138.863281 613.21875 139.402344 C 602.285156 145.671875 591.707031 152.484375 581.847656 160.191406 C 573.601562 166.464844 575.394531 165.03125 569.121094 171.664062 C 564.820312 176.144531 560.695312 180.804688 556.75 185.644531 C 554.421875 188.511719 552.089844 191.558594 550.296875 194.785156 C 549.222656 196.753906 548.148438 198.726562 547.070312 200.699219 C 544.921875 204.640625 542.949219 208.765625 541.15625 212.886719 C 540.257812 214.859375 539.542969 216.828125 538.824219 218.800781 C 538.289062 220.414062 537.75 222.207031 537.390625 223.820312 C 537.210938 224.714844 536.851562 225.792969 536.675781 226.6875 C 534.882812 233.5 532.910156 240.488281 531.117188 247.300781 C 530.9375 247.835938 530.757812 248.195312 530.578125 248.734375 C 530.578125 248.914062 530.21875 249.09375 529.863281 249.09375 C 529.683594 249.09375 529.324219 248.914062 529.144531 248.914062 C 526.097656 247.835938 523.410156 246.402344 520.71875 244.613281 C 516.953125 242.28125 513.371094 239.414062 510.320312 236.367188 C 509.605469 235.648438 509.066406 234.933594 508.53125 234.214844 C 506.199219 230.988281 504.40625 227.582031 502.792969 223.820312 C 501 219.519531 499.746094 214.859375 498.847656 210.199219 C 498.132812 207.152344 497.773438 203.925781 497.414062 200.878906 C 497.234375 198.90625 497.054688 196.933594 496.878906 194.960938 C 496.339844 189.046875 496.519531 183.132812 496.519531 177.21875 C 496.519531 169.511719 496.519531 161.804688 496.519531 154.097656 C 496.519531 151.769531 496.519531 149.617188 496.519531 147.285156 C 496.519531 144.957031 496.699219 142.804688 497.054688 140.476562 C 497.234375 138.503906 497.59375 136.710938 498.132812 134.738281 C 498.492188 133.664062 498.847656 132.589844 499.386719 131.515625 C 499.925781 130.617188 500.464844 129.722656 501.179688 129.003906 C 501.71875 128.46875 502.613281 128.109375 503.332031 127.929688 C 504.226562 127.75 504.945312 127.929688 505.480469 128.289062 C 506.019531 128.644531 506.558594 129.003906 507.097656 129.363281 C 508.171875 130.257812 509.066406 131.15625 509.964844 132.230469 C 513.011719 135.457031 515.699219 138.863281 518.390625 142.445312 C 519.824219 144.238281 520.71875 146.390625 521.796875 148.542969 C 523.585938 152.664062 525.023438 156.785156 526.277344 161.085938 C 526.457031 161.804688 526.636719 162.519531 526.992188 163.238281 C 527.171875 163.597656 527.351562 163.777344 527.53125 163.777344 C 527.890625 163.777344 527.890625 163.417969 528.070312 163.238281 C 530.398438 158.398438 533.804688 153.917969 537.210938 149.796875 C 541.335938 144.777344 545.636719 139.9375 550.117188 135.277344 C 550.65625 134.738281 551.015625 134.382812 551.554688 133.84375 C 558.363281 127.75 565.714844 122.191406 573.421875 117.355469 C 580.414062 112.875 587.945312 109.109375 595.652344 106.0625 C 598.699219 104.808594 601.566406 103.734375 604.792969 102.835938 C 605.871094 102.476562 606.945312 102.121094 608.023438 102.296875 C 608.738281 102.296875 609.277344 102.296875 609.992188 102.476562 C 610.53125 102.65625 611.246094 102.835938 611.964844 103.015625 C 612.863281 103.195312 613.757812 103.195312 614.65625 103.015625 C 615.910156 102.835938 617.164062 102.65625 618.417969 102.476562 C 619.136719 102.296875 619.851562 102.476562 620.570312 102.65625 C 621.824219 103.015625 623.078125 103.375 624.15625 104.089844 C 625.589844 104.988281 626.664062 106.0625 627.382812 107.675781 C 627.917969 109.109375 628.097656 110.722656 627.5625 112.15625 C 627.382812 112.515625 627.5625 112.695312 627.917969 112.875 L 628.097656 112.875 C 628.277344 112.875 628.457031 113.050781 628.636719 113.050781 C 629.710938 113.410156 630.25 114.308594 630.429688 115.382812 C 630.429688 116.816406 630.429688 118.25 630.429688 119.683594 C 630.429688 120.582031 630.070312 121.65625 629.535156 122.371094 C 628.996094 123.089844 628.457031 123.984375 627.917969 124.703125 C 627.023438 124.882812 626.664062 125.242188 626.484375 125.597656 Z M 626.484375 125.597656 " fill-opacity="1" fill-rule="evenodd"/></g></svg>