<svg xmlns="http://www.w3.org/2000/svg" xmlns:xlink="http://www.w3.org/1999/xlink" width="755" zoomAndPan="magnify" viewBox="0 0 567 283.499996" height="377" preserveAspectRatio="xMidYMid meet" version="1.0"><defs><clipPath id="ae2042cb36"><path d="M 0.5 0 L 566.429688 0 L 566.429688 94.328125 L 0.5 94.328125 Z M 0.5 0 " clip-rule="nonzero"/></clipPath><clipPath id="9b9379305f"><path d="M 0.5 94.328125 L 566.429688 94.328125 L 566.429688 188.667969 L 0.5 188.667969 Z M 0.5 94.328125 " clip-rule="nonzero"/></clipPath><clipPath id="ea90a09555"><path d="M 0.5 188.667969 L 566.429688 188.667969 L 566.429688 283 L 0.5 283 Z M 0.5 188.667969 " clip-rule="nonzero"/></clipPath></defs><g clip-path="url(#ae2042cb36)"><path fill="#ffffff" d="M 0.5 0 L 566.429688 0 L 566.429688 94.328125 L 0.5 94.328125 Z M 0.5 0 " fill-opacity="1" fill-rule="nonzero"/></g><g clip-path="url(#9b9379305f)"><path fill="#0039a6" d="M 0.5 94.328125 L 566.429688 94.328125 L 566.429688 188.667969 L 0.5 188.667969 Z M 0.5 94.328125 " fill-opacity="1" fill-rule="nonzero"/></g><g clip-path="url(#ea90a09555)"><path fill="#d52b1e" d="M 0.5 188.667969 L 566.429688 188.667969 L 566.429688 283.011719 L 0.5 283.011719 Z M 0.5 188.667969 " fill-opacity="1" fill-rule="nonzero"/></g></svg>