<svg xmlns="http://www.w3.org/2000/svg" xmlns:xlink="http://www.w3.org/1999/xlink" width="755" zoomAndPan="magnify" viewBox="0 0 567 283.499996" height="377" preserveAspectRatio="xMidYMid meet" version="1.0"><defs><clipPath id="a36871bb32"><path d="M 0.5 0 L 566.5 0 L 566.5 283 L 0.5 283 Z M 0.5 0 " clip-rule="nonzero"/></clipPath><clipPath id="af42e7ebae"><path d="M 0.5 0 L 566.5 0 L 566.5 142 L 0.5 142 Z M 0.5 0 " clip-rule="nonzero"/></clipPath><clipPath id="4567e453cf"><path d="M 0.5 90 L 566.5 90 L 566.5 193 L 0.5 193 Z M 0.5 90 " clip-rule="nonzero"/></clipPath><clipPath id="34e1a75a39"><path d="M 0.5 96 L 566.5 96 L 566.5 187 L 0.5 187 Z M 0.5 96 " clip-rule="nonzero"/></clipPath></defs><g clip-path="url(#a36871bb32)"><path fill="#1eb53a" d="M 0.503906 0 L 566.496094 0 L 566.496094 283 L 0.503906 283 Z M 0.503906 0 " fill-opacity="1" fill-rule="nonzero"/></g><g clip-path="url(#af42e7ebae)"><path fill="#0099b5" d="M 0.503906 0 L 566.496094 0 L 566.496094 141.5 L 0.503906 141.5 Z M 0.503906 0 " fill-opacity="1" fill-rule="nonzero"/></g><g clip-path="url(#4567e453cf)"><path fill="#ce1126" d="M 0.503906 90.558594 L 566.496094 90.558594 L 566.496094 192.441406 L 0.503906 192.441406 Z M 0.503906 90.558594 " fill-opacity="1" fill-rule="nonzero"/></g><g clip-path="url(#34e1a75a39)"><path fill="#ffffff" d="M 0.503906 96.21875 L 566.496094 96.21875 L 566.496094 186.78125 L 0.503906 186.78125 Z M 0.503906 96.21875 " fill-opacity="1" fill-rule="nonzero"/></g><path fill="#ffffff" d="M 113.703125 45.28125 C 113.703125 46.390625 113.648438 47.5 113.539062 48.609375 C 113.429688 49.714844 113.265625 50.816406 113.050781 51.90625 C 112.832031 52.996094 112.5625 54.074219 112.242188 55.136719 C 111.917969 56.203125 111.542969 57.25 111.117188 58.277344 C 110.691406 59.304688 110.21875 60.308594 109.691406 61.289062 C 109.167969 62.269531 108.597656 63.222656 107.980469 64.148438 C 107.363281 65.070312 106.699219 65.964844 105.996094 66.824219 C 105.289062 67.683594 104.542969 68.507812 103.757812 69.292969 C 102.96875 70.078125 102.148438 70.824219 101.289062 71.53125 C 100.425781 72.238281 99.535156 72.898438 98.609375 73.515625 C 97.6875 74.136719 96.734375 74.707031 95.75 75.230469 C 94.769531 75.753906 93.765625 76.230469 92.738281 76.65625 C 91.710938 77.082031 90.664062 77.453125 89.601562 77.777344 C 88.539062 78.101562 87.460938 78.371094 86.367188 78.585938 C 85.277344 78.804688 84.179688 78.96875 83.070312 79.078125 C 81.964844 79.1875 80.855469 79.242188 79.742188 79.242188 C 78.632812 79.242188 77.523438 79.1875 76.414062 79.078125 C 75.308594 78.96875 74.210938 78.804688 73.117188 78.585938 C 72.027344 78.371094 70.949219 78.101562 69.886719 77.777344 C 68.820312 77.453125 67.777344 77.082031 66.746094 76.65625 C 65.71875 76.230469 64.714844 75.753906 63.734375 75.230469 C 62.753906 74.707031 61.800781 74.136719 60.875 73.515625 C 59.953125 72.898438 59.058594 72.238281 58.199219 71.53125 C 57.339844 70.824219 56.515625 70.078125 55.730469 69.292969 C 54.945312 68.507812 54.199219 67.683594 53.492188 66.824219 C 52.785156 65.964844 52.125 65.070312 51.507812 64.148438 C 50.890625 63.222656 50.316406 62.269531 49.792969 61.289062 C 49.269531 60.308594 48.792969 59.304688 48.371094 58.277344 C 47.945312 57.25 47.570312 56.203125 47.246094 55.136719 C 46.921875 54.074219 46.652344 52.996094 46.4375 51.90625 C 46.21875 50.816406 46.058594 49.714844 45.949219 48.609375 C 45.839844 47.5 45.785156 46.390625 45.785156 45.28125 C 45.785156 44.167969 45.839844 43.058594 45.949219 41.953125 C 46.058594 40.84375 46.21875 39.746094 46.4375 38.65625 C 46.652344 37.5625 46.921875 36.488281 47.246094 35.421875 C 47.570312 34.359375 47.945312 33.3125 48.371094 32.285156 C 48.792969 31.257812 49.269531 30.253906 49.792969 29.269531 C 50.316406 28.289062 50.890625 27.335938 51.507812 26.414062 C 52.125 25.488281 52.785156 24.597656 53.492188 23.734375 C 54.199219 22.875 54.945312 22.054688 55.730469 21.265625 C 56.515625 20.480469 57.339844 19.734375 58.199219 19.027344 C 59.058594 18.324219 59.953125 17.660156 60.875 17.042969 C 61.800781 16.425781 62.753906 15.855469 63.734375 15.328125 C 64.714844 14.804688 65.71875 14.332031 66.746094 13.90625 C 67.777344 13.480469 68.820312 13.105469 69.886719 12.78125 C 70.949219 12.460938 72.027344 12.191406 73.117188 11.972656 C 74.210938 11.753906 75.308594 11.59375 76.414062 11.484375 C 77.523438 11.375 78.632812 11.320312 79.742188 11.320312 C 80.855469 11.320312 81.964844 11.375 83.070312 11.484375 C 84.179688 11.59375 85.277344 11.753906 86.367188 11.972656 C 87.460938 12.191406 88.539062 12.460938 89.601562 12.78125 C 90.664062 13.105469 91.710938 13.480469 92.738281 13.90625 C 93.765625 14.332031 94.769531 14.804688 95.75 15.328125 C 96.734375 15.855469 97.6875 16.425781 98.609375 17.042969 C 99.535156 17.660156 100.425781 18.324219 101.289062 19.027344 C 102.148438 19.734375 102.96875 20.480469 103.757812 21.265625 C 104.542969 22.054688 105.289062 22.875 105.996094 23.734375 C 106.699219 24.597656 107.363281 25.488281 107.980469 26.414062 C 108.597656 27.335938 109.167969 28.289062 109.691406 29.269531 C 110.21875 30.253906 110.691406 31.257812 111.117188 32.285156 C 111.542969 33.3125 111.917969 34.359375 112.242188 35.421875 C 112.5625 36.488281 112.832031 37.5625 113.050781 38.65625 C 113.265625 39.746094 113.429688 40.84375 113.539062 41.953125 C 113.648438 43.058594 113.703125 44.167969 113.703125 45.28125 Z M 113.703125 45.28125 " fill-opacity="1" fill-rule="nonzero"/><path fill="#0099b5" d="M 125.023438 45.28125 C 125.023438 46.390625 124.96875 47.5 124.859375 48.609375 C 124.75 49.714844 124.585938 50.816406 124.371094 51.90625 C 124.152344 52.996094 123.882812 54.074219 123.558594 55.136719 C 123.238281 56.203125 122.863281 57.25 122.4375 58.277344 C 122.011719 59.304688 121.539062 60.308594 121.011719 61.289062 C 120.488281 62.269531 119.917969 63.222656 119.300781 64.148438 C 118.683594 65.070312 118.019531 65.964844 117.3125 66.824219 C 116.609375 67.683594 115.863281 68.507812 115.078125 69.292969 C 114.289062 70.078125 113.464844 70.824219 112.605469 71.53125 C 111.746094 72.238281 110.855469 72.898438 109.929688 73.515625 C 109.003906 74.136719 108.050781 74.707031 107.070312 75.230469 C 106.089844 75.753906 105.085938 76.230469 104.058594 76.65625 C 103.03125 77.082031 101.984375 77.453125 100.921875 77.777344 C 99.855469 78.101562 98.78125 78.371094 97.6875 78.585938 C 96.597656 78.804688 95.5 78.96875 94.390625 79.078125 C 93.285156 79.1875 92.175781 79.242188 91.0625 79.242188 C 89.949219 79.242188 88.839844 79.1875 87.734375 79.078125 C 86.628906 78.96875 85.527344 78.804688 84.4375 78.585938 C 83.347656 78.371094 82.269531 78.101562 81.207031 77.777344 C 80.140625 77.453125 79.09375 77.082031 78.066406 76.65625 C 77.039062 76.230469 76.035156 75.753906 75.054688 75.230469 C 74.074219 74.707031 73.121094 74.136719 72.195312 73.515625 C 71.273438 72.898438 70.378906 72.238281 69.519531 71.53125 C 68.660156 70.824219 67.835938 70.078125 67.050781 69.292969 C 66.265625 68.507812 65.519531 67.683594 64.8125 66.824219 C 64.105469 65.964844 63.445312 65.070312 62.828125 64.148438 C 62.210938 63.222656 61.636719 62.269531 61.113281 61.289062 C 60.589844 60.308594 60.113281 59.304688 59.6875 58.277344 C 59.261719 57.25 58.890625 56.203125 58.566406 55.136719 C 58.242188 54.074219 57.972656 52.996094 57.757812 51.90625 C 57.539062 50.816406 57.375 49.714844 57.265625 48.609375 C 57.160156 47.5 57.105469 46.390625 57.105469 45.28125 C 57.105469 44.167969 57.160156 43.058594 57.265625 41.953125 C 57.375 40.84375 57.539062 39.746094 57.757812 38.65625 C 57.972656 37.5625 58.242188 36.488281 58.566406 35.421875 C 58.890625 34.359375 59.261719 33.3125 59.6875 32.285156 C 60.113281 31.257812 60.589844 30.253906 61.113281 29.269531 C 61.636719 28.289062 62.210938 27.335938 62.828125 26.414062 C 63.445312 25.488281 64.105469 24.597656 64.8125 23.734375 C 65.519531 22.875 66.265625 22.054688 67.050781 21.265625 C 67.835938 20.480469 68.660156 19.734375 69.519531 19.027344 C 70.378906 18.324219 71.273438 17.660156 72.195312 17.042969 C 73.121094 16.425781 74.074219 15.855469 75.054688 15.328125 C 76.035156 14.804688 77.039062 14.332031 78.066406 13.90625 C 79.09375 13.480469 80.140625 13.105469 81.207031 12.78125 C 82.269531 12.460938 83.347656 12.191406 84.4375 11.972656 C 85.527344 11.753906 86.628906 11.59375 87.734375 11.484375 C 88.839844 11.375 89.949219 11.320312 91.0625 11.320312 C 92.175781 11.320312 93.285156 11.375 94.390625 11.484375 C 95.5 11.59375 96.597656 11.753906 97.6875 11.972656 C 98.78125 12.191406 99.855469 12.460938 100.921875 12.78125 C 101.984375 13.105469 103.03125 13.480469 104.058594 13.90625 C 105.085938 14.332031 106.089844 14.804688 107.070312 15.328125 C 108.050781 15.855469 109.003906 16.425781 109.929688 17.042969 C 110.855469 17.660156 111.746094 18.324219 112.605469 19.027344 C 113.464844 19.734375 114.289062 20.480469 115.078125 21.265625 C 115.863281 22.054688 116.609375 22.875 117.3125 23.734375 C 118.019531 24.597656 118.683594 25.488281 119.300781 26.414062 C 119.917969 27.335938 120.488281 28.289062 121.011719 29.269531 C 121.539062 30.253906 122.011719 31.257812 122.4375 32.285156 C 122.863281 33.3125 123.238281 34.359375 123.558594 35.421875 C 123.882812 36.488281 124.152344 37.5625 124.371094 38.65625 C 124.585938 39.746094 124.75 40.84375 124.859375 41.953125 C 124.96875 43.058594 125.023438 44.167969 125.023438 45.28125 Z M 125.023438 45.28125 " fill-opacity="1" fill-rule="nonzero"/><path fill="#ffffff" d="M 154.453125 65.65625 L 152.355469 72.117188 L 155.585938 73.164062 " fill-opacity="1" fill-rule="nonzero"/><path fill="#ffffff" d="M 154.453125 65.65625 L 156.554688 72.117188 L 153.324219 73.164062 " fill-opacity="1" fill-rule="nonzero"/><path fill="#ffffff" d="M 160.914062 70.347656 L 154.121094 70.347656 L 154.121094 73.746094 " fill-opacity="1" fill-rule="nonzero"/><path fill="#ffffff" d="M 160.914062 70.347656 L 155.417969 74.339844 L 153.421875 71.59375 " fill-opacity="1" fill-rule="nonzero"/><path fill="#ffffff" d="M 147.996094 70.347656 L 153.488281 74.339844 L 155.484375 71.59375 " fill-opacity="1" fill-rule="nonzero"/><path fill="#ffffff" d="M 147.996094 70.347656 L 154.785156 70.347656 L 154.785156 73.746094 " fill-opacity="1" fill-rule="nonzero"/><path fill="#ffffff" d="M 158.445312 77.941406 L 156.347656 71.484375 L 153.117188 72.53125 " fill-opacity="1" fill-rule="nonzero"/><path fill="#ffffff" d="M 158.445312 77.941406 L 152.953125 73.949219 L 154.949219 71.203125 " fill-opacity="1" fill-rule="nonzero"/><path fill="#ffffff" d="M 150.460938 77.941406 L 155.957031 73.949219 L 153.960938 71.203125 " fill-opacity="1" fill-rule="nonzero"/><path fill="#ffffff" d="M 150.460938 77.941406 L 152.5625 71.484375 L 155.789062 72.53125 " fill-opacity="1" fill-rule="nonzero"/><path fill="#ffffff" d="M 154.453125 38.488281 L 152.355469 44.949219 L 155.585938 45.996094 " fill-opacity="1" fill-rule="nonzero"/><path fill="#ffffff" d="M 154.453125 38.488281 L 156.554688 44.949219 L 153.324219 45.996094 " fill-opacity="1" fill-rule="nonzero"/><path fill="#ffffff" d="M 160.914062 43.179688 L 154.121094 43.179688 L 154.121094 46.578125 " fill-opacity="1" fill-rule="nonzero"/><path fill="#ffffff" d="M 160.914062 43.179688 L 155.417969 47.171875 L 153.421875 44.425781 " fill-opacity="1" fill-rule="nonzero"/><path fill="#ffffff" d="M 147.996094 43.179688 L 153.488281 47.171875 L 155.484375 44.425781 " fill-opacity="1" fill-rule="nonzero"/><path fill="#ffffff" d="M 147.996094 43.179688 L 154.785156 43.179688 L 154.785156 46.578125 " fill-opacity="1" fill-rule="nonzero"/><path fill="#ffffff" d="M 158.445312 50.773438 L 156.347656 44.316406 L 153.117188 45.363281 " fill-opacity="1" fill-rule="nonzero"/><path fill="#ffffff" d="M 158.445312 50.773438 L 152.953125 46.78125 L 154.949219 44.035156 " fill-opacity="1" fill-rule="nonzero"/><path fill="#ffffff" d="M 150.460938 50.773438 L 155.957031 46.78125 L 153.960938 44.035156 " fill-opacity="1" fill-rule="nonzero"/><path fill="#ffffff" d="M 150.460938 50.773438 L 152.5625 44.316406 L 155.789062 45.363281 " fill-opacity="1" fill-rule="nonzero"/><path fill="#ffffff" d="M 154.453125 11.320312 L 152.355469 17.78125 L 155.585938 18.828125 " fill-opacity="1" fill-rule="nonzero"/><path fill="#ffffff" d="M 154.453125 11.320312 L 156.554688 17.78125 L 153.324219 18.828125 " fill-opacity="1" fill-rule="nonzero"/><path fill="#ffffff" d="M 160.914062 16.011719 L 154.121094 16.011719 L 154.121094 19.410156 " fill-opacity="1" fill-rule="nonzero"/><path fill="#ffffff" d="M 160.914062 16.011719 L 155.417969 20.003906 L 153.421875 17.257812 " fill-opacity="1" fill-rule="nonzero"/><path fill="#ffffff" d="M 147.996094 16.011719 L 153.488281 20.003906 L 155.484375 17.257812 " fill-opacity="1" fill-rule="nonzero"/><path fill="#ffffff" d="M 147.996094 16.011719 L 154.785156 16.011719 L 154.785156 19.410156 " fill-opacity="1" fill-rule="nonzero"/><path fill="#ffffff" d="M 158.445312 23.605469 L 156.347656 17.148438 L 153.117188 18.195312 " fill-opacity="1" fill-rule="nonzero"/><path fill="#ffffff" d="M 158.445312 23.605469 L 152.953125 19.613281 L 154.949219 16.867188 " fill-opacity="1" fill-rule="nonzero"/><path fill="#ffffff" d="M 150.460938 23.605469 L 155.957031 19.613281 L 153.960938 16.867188 " fill-opacity="1" fill-rule="nonzero"/><path fill="#ffffff" d="M 150.460938 23.605469 L 152.5625 17.148438 L 155.789062 18.195312 " fill-opacity="1" fill-rule="nonzero"/><path fill="#ffffff" d="M 181.621094 65.65625 L 179.523438 72.117188 L 182.753906 73.164062 " fill-opacity="1" fill-rule="nonzero"/><path fill="#ffffff" d="M 181.621094 65.65625 L 183.71875 72.117188 L 180.492188 73.164062 " fill-opacity="1" fill-rule="nonzero"/><path fill="#ffffff" d="M 188.082031 70.347656 L 181.289062 70.347656 L 181.289062 73.746094 " fill-opacity="1" fill-rule="nonzero"/><path fill="#ffffff" d="M 188.082031 70.347656 L 182.585938 74.339844 L 180.589844 71.59375 " fill-opacity="1" fill-rule="nonzero"/><path fill="#ffffff" d="M 175.164062 70.347656 L 180.65625 74.339844 L 182.652344 71.59375 " fill-opacity="1" fill-rule="nonzero"/><path fill="#ffffff" d="M 175.164062 70.347656 L 181.953125 70.347656 L 181.953125 73.746094 " fill-opacity="1" fill-rule="nonzero"/><path fill="#ffffff" d="M 185.613281 77.941406 L 183.515625 71.484375 L 180.285156 72.53125 " fill-opacity="1" fill-rule="nonzero"/><path fill="#ffffff" d="M 185.613281 77.941406 L 180.121094 73.949219 L 182.117188 71.203125 " fill-opacity="1" fill-rule="nonzero"/><path fill="#ffffff" d="M 177.628906 77.941406 L 183.125 73.949219 L 181.128906 71.203125 " fill-opacity="1" fill-rule="nonzero"/><path fill="#ffffff" d="M 177.628906 77.941406 L 179.726562 71.484375 L 182.957031 72.53125 " fill-opacity="1" fill-rule="nonzero"/><path fill="#ffffff" d="M 181.621094 38.488281 L 179.523438 44.949219 L 182.753906 45.996094 " fill-opacity="1" fill-rule="nonzero"/><path fill="#ffffff" d="M 181.621094 38.488281 L 183.71875 44.949219 L 180.492188 45.996094 " fill-opacity="1" fill-rule="nonzero"/><path fill="#ffffff" d="M 188.082031 43.179688 L 181.289062 43.179688 L 181.289062 46.578125 " fill-opacity="1" fill-rule="nonzero"/><path fill="#ffffff" d="M 188.082031 43.179688 L 182.585938 47.171875 L 180.589844 44.425781 " fill-opacity="1" fill-rule="nonzero"/><path fill="#ffffff" d="M 175.164062 43.179688 L 180.65625 47.171875 L 182.652344 44.425781 " fill-opacity="1" fill-rule="nonzero"/><path fill="#ffffff" d="M 175.164062 43.179688 L 181.953125 43.179688 L 181.953125 46.578125 " fill-opacity="1" fill-rule="nonzero"/><path fill="#ffffff" d="M 185.613281 50.773438 L 183.515625 44.316406 L 180.285156 45.363281 " fill-opacity="1" fill-rule="nonzero"/><path fill="#ffffff" d="M 185.613281 50.773438 L 180.121094 46.78125 L 182.117188 44.035156 " fill-opacity="1" fill-rule="nonzero"/><path fill="#ffffff" d="M 177.628906 50.773438 L 183.125 46.78125 L 181.128906 44.035156 " fill-opacity="1" fill-rule="nonzero"/><path fill="#ffffff" d="M 177.628906 50.773438 L 179.726562 44.316406 L 182.957031 45.363281 " fill-opacity="1" fill-rule="nonzero"/><path fill="#ffffff" d="M 181.621094 11.320312 L 179.523438 17.78125 L 182.753906 18.828125 " fill-opacity="1" fill-rule="nonzero"/><path fill="#ffffff" d="M 181.621094 11.320312 L 183.71875 17.78125 L 180.492188 18.828125 " fill-opacity="1" fill-rule="nonzero"/><path fill="#ffffff" d="M 188.082031 16.011719 L 181.289062 16.011719 L 181.289062 19.410156 " fill-opacity="1" fill-rule="nonzero"/><path fill="#ffffff" d="M 188.082031 16.011719 L 182.585938 20.003906 L 180.589844 17.257812 " fill-opacity="1" fill-rule="nonzero"/><path fill="#ffffff" d="M 175.164062 16.011719 L 180.65625 20.003906 L 182.652344 17.257812 " fill-opacity="1" fill-rule="nonzero"/><path fill="#ffffff" d="M 175.164062 16.011719 L 181.953125 16.011719 L 181.953125 19.410156 " fill-opacity="1" fill-rule="nonzero"/><path fill="#ffffff" d="M 185.613281 23.605469 L 183.515625 17.148438 L 180.285156 18.195312 " fill-opacity="1" fill-rule="nonzero"/><path fill="#ffffff" d="M 185.613281 23.605469 L 180.121094 19.613281 L 182.117188 16.867188 " fill-opacity="1" fill-rule="nonzero"/><path fill="#ffffff" d="M 177.628906 23.605469 L 183.125 19.613281 L 181.128906 16.867188 " fill-opacity="1" fill-rule="nonzero"/><path fill="#ffffff" d="M 177.628906 23.605469 L 179.726562 17.148438 L 182.957031 18.195312 " fill-opacity="1" fill-rule="nonzero"/><path fill="#ffffff" d="M 208.789062 65.65625 L 206.691406 72.117188 L 209.921875 73.164062 " fill-opacity="1" fill-rule="nonzero"/><path fill="#ffffff" d="M 208.789062 65.65625 L 210.886719 72.117188 L 207.660156 73.164062 " fill-opacity="1" fill-rule="nonzero"/><path fill="#ffffff" d="M 215.25 70.347656 L 208.457031 70.347656 L 208.457031 73.746094 " fill-opacity="1" fill-rule="nonzero"/><path fill="#ffffff" d="M 215.25 70.347656 L 209.753906 74.339844 L 207.757812 71.59375 " fill-opacity="1" fill-rule="nonzero"/><path fill="#ffffff" d="M 202.328125 70.347656 L 207.824219 74.339844 L 209.820312 71.59375 " fill-opacity="1" fill-rule="nonzero"/><path fill="#ffffff" d="M 202.328125 70.347656 L 209.121094 70.347656 L 209.121094 73.746094 " fill-opacity="1" fill-rule="nonzero"/><path fill="#ffffff" d="M 212.78125 77.941406 L 210.683594 71.484375 L 207.453125 72.53125 " fill-opacity="1" fill-rule="nonzero"/><path fill="#ffffff" d="M 212.78125 77.941406 L 207.285156 73.949219 L 209.28125 71.203125 " fill-opacity="1" fill-rule="nonzero"/><path fill="#ffffff" d="M 204.796875 77.941406 L 210.292969 73.949219 L 208.296875 71.203125 " fill-opacity="1" fill-rule="nonzero"/><path fill="#ffffff" d="M 204.796875 77.941406 L 206.894531 71.484375 L 210.125 72.53125 " fill-opacity="1" fill-rule="nonzero"/><path fill="#ffffff" d="M 208.789062 38.488281 L 206.691406 44.949219 L 209.921875 45.996094 " fill-opacity="1" fill-rule="nonzero"/><path fill="#ffffff" d="M 208.789062 38.488281 L 210.886719 44.949219 L 207.660156 45.996094 " fill-opacity="1" fill-rule="nonzero"/><path fill="#ffffff" d="M 215.25 43.179688 L 208.457031 43.179688 L 208.457031 46.578125 " fill-opacity="1" fill-rule="nonzero"/><path fill="#ffffff" d="M 215.25 43.179688 L 209.753906 47.171875 L 207.757812 44.425781 " fill-opacity="1" fill-rule="nonzero"/><path fill="#ffffff" d="M 202.328125 43.179688 L 207.824219 47.171875 L 209.820312 44.425781 " fill-opacity="1" fill-rule="nonzero"/><path fill="#ffffff" d="M 202.328125 43.179688 L 209.121094 43.179688 L 209.121094 46.578125 " fill-opacity="1" fill-rule="nonzero"/><path fill="#ffffff" d="M 212.78125 50.773438 L 210.683594 44.316406 L 207.453125 45.363281 " fill-opacity="1" fill-rule="nonzero"/><path fill="#ffffff" d="M 212.78125 50.773438 L 207.285156 46.78125 L 209.28125 44.035156 " fill-opacity="1" fill-rule="nonzero"/><path fill="#ffffff" d="M 204.796875 50.773438 L 210.292969 46.78125 L 208.296875 44.035156 " fill-opacity="1" fill-rule="nonzero"/><path fill="#ffffff" d="M 204.796875 50.773438 L 206.894531 44.316406 L 210.125 45.363281 " fill-opacity="1" fill-rule="nonzero"/><path fill="#ffffff" d="M 208.789062 11.320312 L 206.691406 17.78125 L 209.921875 18.828125 " fill-opacity="1" fill-rule="nonzero"/><path fill="#ffffff" d="M 208.789062 11.320312 L 210.886719 17.78125 L 207.660156 18.828125 " fill-opacity="1" fill-rule="nonzero"/><path fill="#ffffff" d="M 215.25 16.011719 L 208.457031 16.011719 L 208.457031 19.410156 " fill-opacity="1" fill-rule="nonzero"/><path fill="#ffffff" d="M 215.25 16.011719 L 209.753906 20.003906 L 207.757812 17.257812 " fill-opacity="1" fill-rule="nonzero"/><path fill="#ffffff" d="M 202.328125 16.011719 L 207.824219 20.003906 L 209.820312 17.257812 " fill-opacity="1" fill-rule="nonzero"/><path fill="#ffffff" d="M 202.328125 16.011719 L 209.121094 16.011719 L 209.121094 19.410156 " fill-opacity="1" fill-rule="nonzero"/><path fill="#ffffff" d="M 212.78125 23.605469 L 210.683594 17.148438 L 207.453125 18.195312 " fill-opacity="1" fill-rule="nonzero"/><path fill="#ffffff" d="M 212.78125 23.605469 L 207.285156 19.613281 L 209.28125 16.867188 " fill-opacity="1" fill-rule="nonzero"/><path fill="#ffffff" d="M 204.796875 23.605469 L 210.292969 19.613281 L 208.296875 16.867188 " fill-opacity="1" fill-rule="nonzero"/><path fill="#ffffff" d="M 204.796875 23.605469 L 206.894531 17.148438 L 210.125 18.195312 " fill-opacity="1" fill-rule="nonzero"/><path fill="#ffffff" d="M 100.121094 65.65625 L 98.019531 72.117188 L 101.25 73.164062 " fill-opacity="1" fill-rule="nonzero"/><path fill="#ffffff" d="M 100.121094 65.65625 L 102.21875 72.117188 L 98.988281 73.164062 " fill-opacity="1" fill-rule="nonzero"/><path fill="#ffffff" d="M 106.578125 70.347656 L 99.785156 70.347656 L 99.785156 73.746094 " fill-opacity="1" fill-rule="nonzero"/><path fill="#ffffff" d="M 106.578125 70.347656 L 101.082031 74.339844 L 99.085938 71.59375 " fill-opacity="1" fill-rule="nonzero"/><path fill="#ffffff" d="M 93.660156 70.347656 L 99.15625 74.339844 L 101.152344 71.59375 " fill-opacity="1" fill-rule="nonzero"/><path fill="#ffffff" d="M 93.660156 70.347656 L 100.453125 70.347656 L 100.453125 73.746094 " fill-opacity="1" fill-rule="nonzero"/><path fill="#ffffff" d="M 104.113281 77.941406 L 102.011719 71.484375 L 98.78125 72.53125 " fill-opacity="1" fill-rule="nonzero"/><path fill="#ffffff" d="M 104.113281 77.941406 L 98.617188 73.949219 L 100.613281 71.203125 " fill-opacity="1" fill-rule="nonzero"/><path fill="#ffffff" d="M 96.128906 77.941406 L 101.621094 73.949219 L 99.625 71.203125 " fill-opacity="1" fill-rule="nonzero"/><path fill="#ffffff" d="M 96.128906 77.941406 L 98.226562 71.484375 L 101.457031 72.53125 " fill-opacity="1" fill-rule="nonzero"/><path fill="#ffffff" d="M 127.285156 65.65625 L 125.1875 72.117188 L 128.417969 73.164062 " fill-opacity="1" fill-rule="nonzero"/><path fill="#ffffff" d="M 127.285156 65.65625 L 129.386719 72.117188 L 126.15625 73.164062 " fill-opacity="1" fill-rule="nonzero"/><path fill="#ffffff" d="M 133.746094 70.347656 L 126.953125 70.347656 L 126.953125 73.746094 " fill-opacity="1" fill-rule="nonzero"/><path fill="#ffffff" d="M 133.746094 70.347656 L 128.25 74.339844 L 126.253906 71.59375 " fill-opacity="1" fill-rule="nonzero"/><path fill="#ffffff" d="M 120.828125 70.347656 L 126.320312 74.339844 L 128.316406 71.59375 " fill-opacity="1" fill-rule="nonzero"/><path fill="#ffffff" d="M 120.828125 70.347656 L 127.621094 70.347656 L 127.621094 73.746094 " fill-opacity="1" fill-rule="nonzero"/><path fill="#ffffff" d="M 131.277344 77.941406 L 129.179688 71.484375 L 125.949219 72.53125 " fill-opacity="1" fill-rule="nonzero"/><path fill="#ffffff" d="M 131.277344 77.941406 L 125.785156 73.949219 L 127.78125 71.203125 " fill-opacity="1" fill-rule="nonzero"/><path fill="#ffffff" d="M 123.292969 77.941406 L 128.789062 73.949219 L 126.792969 71.203125 " fill-opacity="1" fill-rule="nonzero"/><path fill="#ffffff" d="M 123.292969 77.941406 L 125.394531 71.484375 L 128.625 72.53125 " fill-opacity="1" fill-rule="nonzero"/><path fill="#ffffff" d="M 127.285156 38.488281 L 125.1875 44.949219 L 128.417969 45.996094 " fill-opacity="1" fill-rule="nonzero"/><path fill="#ffffff" d="M 127.285156 38.488281 L 129.386719 44.949219 L 126.15625 45.996094 " fill-opacity="1" fill-rule="nonzero"/><path fill="#ffffff" d="M 133.746094 43.179688 L 126.953125 43.179688 L 126.953125 46.578125 " fill-opacity="1" fill-rule="nonzero"/><path fill="#ffffff" d="M 133.746094 43.179688 L 128.25 47.171875 L 126.253906 44.425781 " fill-opacity="1" fill-rule="nonzero"/><path fill="#ffffff" d="M 120.828125 43.179688 L 126.320312 47.171875 L 128.316406 44.425781 " fill-opacity="1" fill-rule="nonzero"/><path fill="#ffffff" d="M 120.828125 43.179688 L 127.621094 43.179688 L 127.621094 46.578125 " fill-opacity="1" fill-rule="nonzero"/><path fill="#ffffff" d="M 131.277344 50.773438 L 129.179688 44.316406 L 125.949219 45.363281 " fill-opacity="1" fill-rule="nonzero"/><path fill="#ffffff" d="M 131.277344 50.773438 L 125.785156 46.78125 L 127.78125 44.035156 " fill-opacity="1" fill-rule="nonzero"/><path fill="#ffffff" d="M 123.292969 50.773438 L 128.789062 46.78125 L 126.792969 44.035156 " fill-opacity="1" fill-rule="nonzero"/><path fill="#ffffff" d="M 123.292969 50.773438 L 125.394531 44.316406 L 128.625 45.363281 " fill-opacity="1" fill-rule="nonzero"/></svg>